<svg xmlns="http://www.w3.org/2000/svg" width="316.605" height="772.667" viewBox="0 0 316.605 772.667">
  <g id="Group_5" data-name="Group 5" transform="translate(127 -409.333)">
    <path id="Path_71" data-name="Path 71" d="M-370,229.333S-282,280-258.667,306.667-221,393.333-238.333,456C-251.5,481.5-305,523-254.5,566c64,41,71.05,105.3,74.5,126-.65,36.7,10,58-37,122s-183.2,188-183.2,188h-49.6L-496,229.333Z" transform="translate(369 180)" fill="#e6f9f5"/>
    <path id="Path_70" data-name="Path 70" d="M-399.058,245.562S-320.751,309-308.876,332.5c0,0,11.847,25.791,12.825,31.833,2.072,12.8,9.5,30.667-7.38,77.667-29.7,74.489-46.463,81.5-19.361,111.5.688,1.41,70.123,45.833,70.756,161.5.436,79.578-49.082,146.971-73.8,170.563-11.026,12.76-74.639,75.03-74.639,75.03S-386.255,799.468-399.058,245.562Z" transform="translate(399 180)" fill="#00f6ff"/>
    <path id="Path_69" data-name="Path 69" d="M-366,266s59.562,45,67.3,70.232c0,0,2.777,8.26,3.956,12.113a122.734,122.734,0,0,1,3.82,15.988c2.183,12.8,10.01,30.667-7.776,77.667-31.291,74.489-49.589,78.754-31.888,113.156.725,1.41,1.634,3.088,2.625,4.844,32.033,39,82.753,39.333,83.42,155S-362,950.4-362,950.4-358.437,719.842-366,266Z" transform="translate(362 174)" fill="#00a6d1"/>
  </g>
</svg>
