<svg xmlns="http://www.w3.org/2000/svg" width="2051.16" height="1266.667" viewBox="0 0 2051.16 1266.667">
  <g id="bezier" transform="translate(127 -409.333)">
    <path id="Path_71" data-name="Path 71" d="M-370,229.333S-282,280-258.667,306.667-221,393.333-238.333,456C-251.5,481.5-305,523-254.5,566c64,41,71.05,105.3,74.5,126,6,36,10,58-37,122s-51.667,71.667-41.667,94,18,29,32.167,46,46.5,63.333,46.5,63.333H-496v-788Z" transform="translate(369 180)" fill="#e6f9f5"/>
    <path id="Path_70" data-name="Path 70" d="M-392,263s71.249,46,83.124,69.5c0,0,11.847,25.791,12.825,31.833,2.072,12.8,9.5,30.667-7.38,77.667-29.7,74.489-46.463,81.5-19.361,111.5.688,1.41,70.123,45.833,70.756,161.5S-373.2,850.667-317.585,900.667c5.44,8.833,8.828,11.333,14.955,22.617,30.171,41.716,3.842,61.536,103.735,91.216C-81.1,1049.5-61.405,996,35.493,956s142.5-48,165.3-50,218.5,0,218.5,0H1450.97v590H-363.5Z" transform="translate(393 180)" fill="#00f6ff"/>
    <path id="Path_69" data-name="Path 69" d="M-366,266s59.562,45,67.3,70.232c0,0,2.777,8.26,3.956,12.113a122.734,122.734,0,0,1,3.82,15.988c2.183,12.8,10.01,30.667-7.776,77.667-31.291,74.489-49.589,78.754-31.888,113.156.725,1.41,1.634,3.088,2.625,4.844,32.033,39,82.753,39.333,83.42,155s-123.8,135.333-69.072,184.667S-275.694,939.758-197.826,985s183.19,9,256.266-29,101.772-38,174.181-50,230.239,0,230.239,0,994.865,5.667,1011.049,5.5c2.605-.027,74.142-2.914,78.581,22.5,23.133,132.421-2.5,562-2.5,562H-362Z" transform="translate(362 174)" fill="#00a6d1"/>
  </g>
</svg>
