<svg xmlns="http://www.w3.org/2000/svg" width="429.06" height="912.539" viewBox="0 0 429.06 912.539">
  <g id="Group_5" data-name="Group 5" transform="translate(108 -320.908)">
    <path id="Path_71" data-name="Path 71" d="M-316.825,243.719c58.392,30.118,76.779,51.011,111.53,80.339s61.367,122.168,24.905,182.915c-11.547,19.268-42.9,49.352-45.771,82.3-1.453,16.642,4.875,34.474,25.967,52.435,78.392,50.22,87.028,128.98,91.253,154.335-.8,44.953,3.016,78.738-41.646,159.234s-262.95,180.4-262.95,180.4H-459.02L-496,229.333l65.464-3.9S-375.217,213.6-316.825,243.719Z" transform="translate(430 97.765)" fill="#f2fffc"/>
    <path id="Path_71-2" data-name="Path 71" d="M-384.772,240.059s97.735,42.665,126.106,66.608S-221,393.333-238.333,456c-6.976,16.347-35.021,40.291-37.368,67.192-1.186,13.587,3.98,28.145,21.2,42.808,64,41,71.05,105.3,74.5,126-.65,36.7,2.462,64.282-34,130S-393.453,983.43-393.453,983.43l-59.377,20.7L-496,229.333Z" transform="translate(388 180)" fill="#dff6f1"/>
    <path id="Path_70" data-name="Path 70" d="M-402.887,255.14s14.789,10.379,21.125,14.68c19.856,13.476,63.79,44.679,72.886,62.68,0,0,11.847,25.791,12.825,31.833,2.072,12.8,9.5,30.667-7.38,77.667-29.7,74.489-46.463,81.5-19.361,111.5.688,1.41,70.123,45.833,70.756,161.5.436,79.578-50.663,145.043-75.385,168.634-8.412,13.711-76.027,78.2-76.027,78.2S-390.085,809.046-402.887,255.14Z" transform="translate(403 180)" fill="#00f6ff"/>
    <path id="Path_69" data-name="Path 69" d="M-366,266s59.562,45,67.3,70.232c0,0,2.777,8.26,3.956,12.113a122.741,122.741,0,0,1,3.82,15.988c2.183,12.8,10.01,30.667-7.776,77.667-31.291,74.489-49.589,78.754-31.888,113.156.725,1.41,1.634,3.088,2.625,4.844,32.033,39,82.753,39.333,83.42,155S-362,950.4-362,950.4-358.437,719.842-366,266Z" transform="translate(362 174)" fill="#00a6d1"/>
  </g>
</svg>
