<svg xmlns="http://www.w3.org/2000/svg" width="121.008" height="112" viewBox="0 0 121.008 112">
  <g id="C_-_22_x2C__Growth_x2C__Charity_x2C__donation_x2C__finance_x2C__loan_x2C__money_x2C__payment" transform="translate(-43.724 -59.86)">
    <g id="Group_32" data-name="Group 32" transform="translate(45.155 61.36)">
      <path id="Path_323" data-name="Path 323" d="M204.57,229.231q.523-.008,1.069-.009c1.661,0,3.583.063,5.67.2l.228.016.469.033a91.852,91.852,0,0,1,16.88,2.762c9.338,2.549,14.442,6.155,15.17,10.719a.027.027,0,0,0,0,.007c0,.018,0,.036.007.054.019.128.038.255.052.38a70.607,70.607,0,0,1,19.5-9.756l.111-.031c.181-.052.362-.1.542-.151.145-.039.288-.076.432-.112l.225-.058c.222-.055.442-.108.661-.157-3.616-6.986-16.942-12.1-32.131-12.1C221.446,221.036,210.4,224.246,204.57,229.231Z" transform="translate(-159.933 -176.326)" fill="#fff" stroke="#707070" stroke-width="3"/>
      <path id="Path_324" data-name="Path 324" d="M69.394,307.068c-1.449-2.458-3-4.951-4.457-7.143a41.938,41.938,0,0,0-4.716-6.176c-1.692-1.618-2.73-2.339-3.364-2.339a1.455,1.455,0,0,0-.662.193c-2.911,1.434-10.175,6.46-10.856,7.885-.377.79-.139,1.476.436,2.951a21.605,21.605,0,0,1,.9,2.69c1.2,4.784.96,10.394.726,15.819-.241,5.575-.468,10.842.85,14.7.053.155.119.348.713.348a7.026,7.026,0,0,0,3.121-1.055c1.467-.855,4.284-2.2,7.545-3.754,3.417-1.629,7.289-3.475,10.427-5.152,4.841-2.587,5.512-3.509,5.6-3.667.464-1.025.191-2.735-.816-5.074A106.184,106.184,0,0,0,69.394,307.068Zm-7.729,14.721a2.852,2.852,0,1,1,2.526-3.155A2.864,2.864,0,0,1,61.665,321.789Z" transform="translate(-45.155 -226.995)" fill="#fff" stroke="#707070" stroke-width="3"/>
      <path id="Path_325" data-name="Path 325" d="M209.636,267.652c-.247-3.375-5.183-4.6-8.441-4.6a11.268,11.268,0,0,0-1.537.1c-.2.028-.405.06-.611.1l-.221.039q-.24.043-.485.092l-.258.054q-.223.047-.449.1l-.336.08q-.184.045-.37.093c-.15.038-.3.078-.452.12l-.251.07c-.2.056-.4.114-.6.175l-.1.029a70.027,70.027,0,0,0-20,10.536c-.122.095-.239.189-.357.283a5.441,5.441,0,0,1-1.207,1.571c-1.788,1.609-4.7,2.215-8.129,2.215-5.611,0-12.587-1.627-18.2-3.134-.365-.1-.677-.181-.927-.247a1.312,1.312,0,1,1,.661-2.539c.256.066.575.152.947.252a100.838,100.838,0,0,0,12.52,2.681c7.259.955,10.193-.113,11.376-1.178a2.892,2.892,0,0,0,.937-1.826c0-.014,0-.028,0-.042.016-.127.026-.259.03-.395,0-.024,0-.047,0-.071,0-.139,0-.284-.012-.433,0-.041-.006-.082-.01-.123-.013-.147-.029-.3-.053-.453,0-.007,0-.013,0-.02-.99-6.262-15.917-10.163-28.906-11.23-2.4-.2-4.742-.3-6.913-.3-1.566,0-2.976.054-4.189.162h-.019a20.747,20.747,0,0,0-2.131.286c-5.935,1.173-14.149,5.964-20.147,9.461l-1.18.687c.027.032.055.067.083.1.082.1.165.2.249.3l.169.209.2.247.2.258.242.315.149.2q.157.207.317.424l.136.185q.15.2.3.414l.127.177c.1.146.21.3.316.445l.115.164q.184.263.371.533l.109.158c.13.189.26.38.392.575l.062.093q.192.284.384.574l.066.1q.208.314.418.635l.08.123q.212.325.425.656l.052.08q.215.334.43.673l.025.04q.219.346.439.7l.071.113q.215.343.429.689l.059.1q.442.716.88,1.439l.072.119q.206.341.41.683l.085.142.407.685.051.087q.181.307.36.613l.095.162q.183.313.362.624l.123.213.342.6.126.222.247.435.161.285.272.485.158.285.272.491.172.313.147.269q.145.266.285.525l.115.212q.3.561.581,1.092l.068.13q.162.309.315.606l.05.1q.271.527.511,1.011l.018.037q.149.3.284.58l.036.074c.035.073.072.149.106.22a40.629,40.629,0,0,1,13.956-2.824c4.917,0,8.84,1.257,12.634,2.472,3.977,1.274,8.091,2.592,13.6,2.592.894,0,1.818-.035,2.745-.1,4.757-.353,15.674-5.071,25.96-11.219C204.438,275.744,209.811,270.029,209.636,267.652Z" transform="translate(-91.565 -204.123)" fill="#fff" stroke="#707070" stroke-width="3"/>
      <path id="Path_326" data-name="Path 326" d="M202.18,87.852a12.042,12.042,0,0,0,7.458,2.3h0a22.4,22.4,0,0,0,6.661-1.132l10.584,9.461v6.277a1.312,1.312,0,0,0,2.624,0V88.322l9.642-8.035a1.278,1.278,0,0,0,.256.082,26.028,26.028,0,0,0,5.027.529c4.056,0,7.275-1.157,9.569-3.44,3.182-3.165,4.194-8.193,2.927-14.54a1.312,1.312,0,0,0-1.032-1.03,26.042,26.042,0,0,0-5.028-.529c-4.057,0-7.276,1.158-9.567,3.44-2.912,2.9-4,7.351-3.2,12.943l-8.6,7.164V67.671a1.312,1.312,0,0,0-2.624,0V94.963l-8.935-7.987c.248-6.13-1.433-10.747-4.893-13.369a12.047,12.047,0,0,0-7.457-2.3,23.045,23.045,0,0,0-7.4,1.374,1.311,1.311,0,0,0-.884,1.16C196.917,80.3,198.6,85.143,202.18,87.852Zm40.389-9.669.263.022C242.745,78.2,242.658,78.192,242.57,78.184Zm.842.06.243.013Zm11.1-13.94c.614,3.687.593,8.353-2.364,11.295-1.784,1.775-4.381,2.676-7.718,2.676h0c3.337,0,5.933-.9,7.717-2.676,2.957-2.941,2.978-7.607,2.364-11.295a22.386,22.386,0,0,0-3.646-.32h0A22.422,22.422,0,0,1,254.516,64.3Zm-13.145,5.027c-.037.087-.072.173-.106.26C241.3,69.5,241.334,69.418,241.371,69.331Zm1.7-2.59c-.093.1-.183.193-.271.291Q242.936,66.884,243.076,66.741Zm-.406.447q-.149.176-.285.36Q242.521,67.364,242.67,67.188Zm-.405.528q-.095.134-.183.27Q242.17,67.849,242.265,67.716Zm-.3.451c-.074.121-.144.244-.212.369C241.822,68.411,241.892,68.288,241.966,68.167Zm-.321.575c-.051.1-.1.2-.145.3C241.547,68.939,241.595,68.84,241.645,68.742Zm-1.176,5.465c0,.041,0,.082,0,.124C240.468,74.289,240.469,74.248,240.469,74.207Zm.707-4.384c-.047.129-.09.258-.132.389C241.086,70.081,241.13,69.951,241.177,69.823Zm-.206.639c-.024.08-.045.16-.066.24C240.925,70.622,240.947,70.542,240.97,70.462Zm-.164.633c-.018.082-.037.164-.054.246C240.77,71.258,240.788,71.177,240.807,71.095Zm-.108.522c-.014.079-.027.158-.04.237C240.672,71.775,240.685,71.7,240.7,71.617Zm-.1.679c-.008.066-.017.132-.024.2C240.577,72.427,240.586,72.361,240.594,72.3Zm-.074.719c0,.051-.009.1-.013.153C240.511,73.117,240.515,73.066,240.52,73.014Zm-.031.472c0,.052,0,.1-.006.157C240.484,73.591,240.486,73.539,240.489,73.486Zm.01,1.9c0,.025,0,.05,0,.074C240.5,75.437,240.5,75.412,240.5,75.387Zm.022.341,4.033-3.361a1.306,1.306,0,0,1,.959-.3,1.308,1.308,0,0,0-.956.3l-4.035,3.363S240.52,75.729,240.52,75.729Zm-30.882,11.8h0Zm3.822-.457q.259-.058.521-.122l-4.017-3.591a1.312,1.312,0,0,1,.8-2.288,1.312,1.312,0,0,0-.8,2.288l4.017,3.591C213.808,86.994,213.634,87.033,213.461,87.072Zm-3.235.444.221-.012C210.373,87.508,210.3,87.513,210.226,87.516Zm.6-.037.278-.024Zm.592-.058q.655-.076,1.338-.2Q212.068,87.346,211.413,87.421Zm1.459-.226c.163-.032.328-.066.493-.1Q213.117,87.147,212.872,87.195Zm2.452-2.566,0,0c-.146-2.869-.865-5.939-2.891-8.068C214.459,78.688,215.179,81.759,215.324,84.629Zm-2.906-8.085q-.211-.22-.441-.427Q212.207,76.324,212.418,76.545Zm-.946-.846c.167.127.326.261.481.4-.155-.137-.315-.27-.483-.4a9.491,9.491,0,0,0-5.871-1.768h0A9.492,9.492,0,0,1,211.472,75.7Z" transform="translate(-154.669 -61.36)" fill="#fff" stroke="#707070" stroke-width="3"/>
    </g>
  </g>
</svg>
