<svg id="Component" xmlns="http://www.w3.org/2000/svg" xmlns:xlink="http://www.w3.org/1999/xlink" width="1036.721" height="691.141" viewBox="0 0 1036.721 691.141">
  <defs>
    <linearGradient id="linear-gradient" x1="-0.749" y1="0.178" x2="3.443" y2="1.496" gradientUnits="objectBoundingBox">
      <stop offset="0" stop-opacity="0"/>
      <stop offset="0.99"/>
    </linearGradient>
    <linearGradient id="linear-gradient-2" x1="-0.141" y1="0.626" x2="1.531" y2="0.174" gradientUnits="objectBoundingBox">
      <stop offset="0" stop-opacity="0"/>
      <stop offset="0.6" stop-opacity="0.361"/>
      <stop offset="0.99"/>
    </linearGradient>
    <linearGradient id="linear-gradient-3" x1="0.423" y1="0.952" x2="0.59" y2="-0.503" xlink:href="#linear-gradient"/>
    <linearGradient id="linear-gradient-4" x1="0.508" y1="0.071" x2="0.492" y2="1.224" xlink:href="#linear-gradient"/>
    <linearGradient id="linear-gradient-5" x1="-0.045" y1="0.331" x2="1.744" y2="1.103" xlink:href="#linear-gradient"/>
    <linearGradient id="linear-gradient-6" x1="0.173" y1="1.028" x2="1.13" y2="-0.857" xlink:href="#linear-gradient"/>
    <linearGradient id="linear-gradient-7" x1="0.388" y1="1.642" x2="0.664" y2="-1.521" xlink:href="#linear-gradient"/>
    <linearGradient id="linear-gradient-8" x1="-0.311" y1="0.479" x2="2.735" y2="0.555" xlink:href="#linear-gradient"/>
    <linearGradient id="linear-gradient-9" x1="-373.72" y1="0.479" x2="-370.674" y2="0.555" xlink:href="#linear-gradient"/>
    <linearGradient id="linear-gradient-10" x1="1.168" y1="0.748" x2="-1.133" y2="-0.091" xlink:href="#linear-gradient"/>
    <linearGradient id="linear-gradient-11" x1="-0.054" y1="0.662" x2="2.03" y2="0.033" xlink:href="#linear-gradient"/>
    <linearGradient id="linear-gradient-12" x1="0.827" y1="0.936" x2="0.212" y2="-0.118" xlink:href="#linear-gradient-2"/>
    <linearGradient id="linear-gradient-13" x1="1.393" y1="0.091" x2="-0.139" y2="0.819" xlink:href="#linear-gradient-2"/>
    <linearGradient id="linear-gradient-14" x1="0.632" y1="1.692" x2="0.196" y2="-2.658" xlink:href="#linear-gradient"/>
    <linearGradient id="linear-gradient-15" x1="0.507" y1="-0.604" x2="0.495" y2="0.91" gradientUnits="objectBoundingBox">
      <stop offset="0.01"/>
      <stop offset="1" stop-opacity="0"/>
    </linearGradient>
    <linearGradient id="linear-gradient-16" x1="0" y1="0.503" x2="1" y2="0.503" xlink:href="#linear-gradient-15"/>
    <linearGradient id="linear-gradient-17" x1="0" y1="0.5" x2="1" y2="0.5" xlink:href="#linear-gradient-15"/>
    <linearGradient id="linear-gradient-18" y1="0.5" x2="1" y2="0.5" gradientUnits="objectBoundingBox">
      <stop offset="0.01"/>
      <stop offset="0.13" stop-opacity="0.69"/>
      <stop offset="1" stop-opacity="0"/>
    </linearGradient>
    <linearGradient id="linear-gradient-19" x1="0.531" y1="-0.485" x2="0.464" y2="2.36" xlink:href="#linear-gradient-18"/>
    <linearGradient id="linear-gradient-20" x1="0.706" y1="0.219" x2="0.328" y2="0.991" xlink:href="#linear-gradient-15"/>
    <linearGradient id="linear-gradient-21" x1="1.054" y1="0.479" x2="-0.956" y2="0.6" xlink:href="#linear-gradient-18"/>
    <linearGradient id="linear-gradient-22" x1="0" y1="0.5" x2="0.999" y2="0.5" xlink:href="#linear-gradient-18"/>
    <linearGradient id="linear-gradient-23" x1="0.001" y1="0.5" x2="1" y2="0.5" xlink:href="#linear-gradient-18"/>
  </defs>
  <path id="Path_284" data-name="Path 284" d="M1470,66c-96-44-154-72-284-34S1056,90,974,74,839.333,95,792,150s80.333,191.333,26,240S711,412,702,508s26.667,129,142,124,140-12,188,38,146,44,206,0,72-110,128-128,86,9,120,28,121,6,149.667-62c15.333-75,3.083-89,0-97.333C1608,337,1692,306,1692,306s96.333-52,8.333-174S1470,66,1470,66Z" transform="translate(-700.674 -14.145)" fill="#e6f9f5"/>
  <g id="Component_1" data-name="Component 1" transform="translate(277.326 439.855)">
    <g id="user_group" transform="translate(4.998 0.039)">
      <path id="Path_111" data-name="Path 111" d="M11.933,149.39C-2.745,138.759.9,113.37,1.853,105.192A32.713,32.713,0,0,1,5.766,92.333c6.563-11.115,20.54-13.923,30.871-21.2,11.495-8.057,18.813-21.955,31.184-28.422,6.809-3.559,14.566-4.523,22.164-4.948,13.794-.776,28.889.53,39.141,10.268,7.414,7.043,11.111,17.436,17.7,25.335,5.808,6.968,13.652,11.745,19.731,18.454,9.029,9.955,13.644,25.188,8.762,37.948-4.535,11.82-11.478,19.577-15.079,20.745-11.557,3.755-36.817,4.21-48.9,5.069-12.955.918-24.617-1.093-37.6-1.051-20.027.067-47.352,1.172-61.788-5.153" transform="translate(-0.75 -37.61)" fill="#47c5fc" opacity="0.18"/>
      <path id="Path_112" data-name="Path 112" d="M264.4,169.11s1.878,4.727-7.982,7.656-15.271,14.516-15.058,24.262v6.284s30.658,11.265,56.656.868c0,0,2.5-26.323-15.271-32.5,0,0-3.684-1.085-2.6-5.424,0,0,8.453-4.769,6.934-17.336s-6.346-16.468-11.336-16.752C255.589,135.022,255.518,161.454,264.4,169.11Z" transform="translate(-140.965 -95.048)" fill="#f7af87"/>
      <path id="Path_113" data-name="Path 113" d="M298.544,260.532s.376-18.358-2.674-24.592c-2.574-5.27-9.217-6.622-14.824-8.345a2.249,2.249,0,0,0-.976-.134,2.608,2.608,0,0,0-1.1.592,15.546,15.546,0,0,1-20.62-1.715c-6.726,2.049-11.987,2.007-15.517,8.09s-5.278,17.962-4.615,24.963C238.2,259.4,268.5,271.677,298.544,260.532Z" transform="translate(-139.055 -147.618)" fill="#47c5fc"/>
      <path id="Path_114" data-name="Path 114" d="M255.44,238.815s5.09-5.22,7.139-5.245,14.6,35.586,14.6,35.586l-18.738-.893Z" transform="translate(-149.173 -151.831)" fill="url(#linear-gradient)"/>
      <path id="Path_115" data-name="Path 115" d="M280.6,126.867c1.172-3.9,4.085-7.51,8.053-8.416,1.185-.271,2.407-.292,3.6-.522.726-.142,1.435-.355,2.153-.534a16.981,16.981,0,0,1,8.966.083,12.384,12.384,0,0,1,7.072,5.361,14.433,14.433,0,0,1,1.669,8.378c-.213,2.887-1.886,8-2.674,10.786-1.4-1.836-.467-7.043-2.428-8.27-1.394-.872-3.188-.476-4.811-.2a27.579,27.579,0,0,1-11.328-.417c-1.757-.442-3.559-1.06-5.332-.7-1.54.309-2.086,1.49-2.921,2.8-.592.905-.947,5.424-1.452,6.3-1.177-.417-1.406-7.577-1.394-8.608A21.807,21.807,0,0,1,280.6,126.867Z" transform="translate(-163.351 -83.802)" fill="#404040"/>
      <path id="Path_116" data-name="Path 116" d="M350.616,173.548a1.9,1.9,0,0,1,1.406-.522,1.344,1.344,0,0,1,.918.713,2.779,2.779,0,0,1,.284,1.16,6.292,6.292,0,0,1-1.469,4.427,2.47,2.47,0,0,1-2.278,1.047.835.835,0,0,1-.451-.238,1.081,1.081,0,0,1-.2-.4,8.1,8.1,0,0,1-.067-3.859,2.071,2.071,0,0,1,.618-1.456C349.765,174.124,350.215,173.849,350.616,173.548Z" transform="translate(-203.439 -116.547)" fill="#f7af87"/>
      <path id="Path_117" data-name="Path 117" d="M93.082,156.907a2.177,2.177,0,0,0,2.32-2.3c.805-6.054,3.046-23.891-2.921-34.113-.834-1.46-2.987-1.8-4.147-2.921-2.72-2.67-6.2-5.908-11.019-5.875-11.541.079-16.794,5.791-21.521,16.322-2.871,6.388-3.755,25.735-1.377,27.608,2.5,1.974,9.1,1.815,12.2,2.124a101.9,101.9,0,0,0,26.465-.847Z" transform="translate(-31.226 -80.809)" fill="#404040"/>
      <path id="Path_118" data-name="Path 118" d="M134.043,147.566a2.449,2.449,0,0,1,.834-.722,2.72,2.72,0,0,1,2.921.834,7.84,7.84,0,0,1,1.961,3.68,18.55,18.55,0,0,1,.417,4.172q.038,2.583-.159,5.165a24.279,24.279,0,0,1-1.569,7.4,11.923,11.923,0,0,1-4.74,5.77c-1.619-5.791-1.769-11.875-1.907-17.883-.025-.955-.046-1.907-.025-2.858a3.83,3.83,0,0,1,.075-1.435c.179-.334.5-.267.793-.488.463-.346.384-.989.488-1.515A5.921,5.921,0,0,1,134.043,147.566Z" transform="translate(-77.09 -101.188)" fill="url(#linear-gradient-2)"/>
      <path id="Path_119" data-name="Path 119" d="M60.141,178.021a2.7,2.7,0,0,0-1.181.463,2.6,2.6,0,0,0-.68.976A10.047,10.047,0,0,0,58.7,188.6s1.965-2.107,2.136-2.324a19.415,19.415,0,0,0,1.794-2.8c.471-.9,2.946-5.057,1.7-5.57A11.386,11.386,0,0,0,60.141,178.021Z" transform="translate(-33.75 -119.301)" fill="url(#linear-gradient-3)"/>
      <path id="Path_120" data-name="Path 120" d="M69.83,191.962c-.914-2.115-.73-4.531-.417-6.813a12.612,12.612,0,0,1,1.848-5.662,8.929,8.929,0,0,1,4.277-3.075,19.193,19.193,0,0,1,5.236-.96,45.411,45.411,0,0,1,7.681.125,16.06,16.06,0,0,1,5.215,1.252,10.719,10.719,0,0,1,5.074,5.249,13.264,13.264,0,0,1,.989,7.289,5.658,5.658,0,0,1-1.1,2.941,5.841,5.841,0,0,1-2.725,1.577c-3.755,1.2-7.736,1.11-11.624.955-3.225-.125-6.484.058-9.659-.567C72.763,193.91,70.681,193.939,69.83,191.962Z" transform="translate(-40.614 -117.9)" fill="url(#linear-gradient-4)"/>
      <path id="Path_121" data-name="Path 121" d="M87.206,208.189c-26.015,10.4-56.656-.868-56.656-.868v-6.259c-.234-9.772,5.19-21.362,15.058-24.283s9.179-6.338,9.179-6.338c-8.879-7.652-10.014-35.4,10.151-34.251,5.007.284,9.826,4.172,11.336,16.756a18.3,18.3,0,0,1-8.345,18.079,3.3,3.3,0,0,0,1.252,3.338,7.552,7.552,0,0,0,2.754,1.339C89.689,181.866,87.206,208.189,87.206,208.189Z" transform="translate(-18.111 -95.062)" fill="#f7af87"/>
      <path id="Path_122" data-name="Path 122" d="M74.675,150.8a28.768,28.768,0,0,0,11.5-2.132,17.7,17.7,0,0,0,8.645-7.685,8.09,8.09,0,0,0,1.047-3.555,7.074,7.074,0,0,0-3.442-5.841,13.53,13.53,0,0,0-6.755-1.832,20.58,20.58,0,0,0-14.186,4.519,15.438,15.438,0,0,0-5.424,10.944C65.875,149.8,70.928,150.792,74.675,150.8Z" transform="translate(-38.808 -91.317)" fill="#404040"/>
      <path id="Path_123" data-name="Path 123" d="M87.659,260.538s-1.982-14.983-5.032-21.229c-2.574-5.27-6.864-9.984-12.471-11.7a2.241,2.241,0,0,0-.976-.133,2.57,2.57,0,0,0-1.1.592,15.546,15.546,0,0,1-20.62-1.715,27.851,27.851,0,0,0-15.909,12.73A34.384,34.384,0,0,0,27.331,259.4S57.614,271.683,87.659,260.538Z" transform="translate(-16.148 -147.624)" fill="#47c5fc"/>
      <path id="Path_124" data-name="Path 124" d="M100.9,267.777s-11.545,1.281-13.89.108c0,0,5.841-31.4,19.744-35.916,0,0,6.025,1,10.744,10.614C118.87,245.376,100.9,267.777,100.9,267.777Z" transform="translate(-51.018 -150.899)" fill="url(#linear-gradient-5)"/>
      <path id="Path_125" data-name="Path 125" d="M120.38,279.358V260.348s4.552-17.107,20.369-19.068,32.932.651,32.932.651,16.689,2.165,19.714,22.748v16.251S151.364,293.08,120.38,279.358Z" transform="translate(-70.465 -155.899)" fill="#47c5fc"/>
      <path id="Path_126" data-name="Path 126" d="M164.953,188.655a2.6,2.6,0,0,0-2.249-.417,2.149,2.149,0,0,0-.805.555c-1.172,1.252-1.106,3.2-.734,4.869a18.551,18.551,0,0,0,.834,2.75,4.173,4.173,0,0,0,.622,1.152,3.994,3.994,0,0,0,3.58.972,2.364,2.364,0,0,0,1.953-1,2.27,2.27,0,0,0,.2-.834C168.7,193.324,167.907,190.441,164.953,188.655Z" transform="translate(-94.093 -125.345)" fill="#f7af87"/>
      <path id="Path_127" data-name="Path 127" d="M241.582,191.443a3.493,3.493,0,0,1,3.242-.709,2.679,2.679,0,0,1,1.464,2.22,6.2,6.2,0,0,1-.476,2.72,9.146,9.146,0,0,1-1.69,3.017,4.54,4.54,0,0,1-3,1.569,3.058,3.058,0,0,1-2.9-1.544,5.007,5.007,0,0,1-.384-2.14,4.143,4.143,0,0,1,.188-1.669C238.482,193.759,240.61,192.119,241.582,191.443Z" transform="translate(-138.904 -126.765)" fill="#f7af87"/>
      <path id="Path_128" data-name="Path 128" d="M183.624,237.118a4.744,4.744,0,0,0-.634,2.086,3.634,3.634,0,0,0,.309,1.252,11.305,11.305,0,0,0,7.74,6.526,10.285,10.285,0,0,0,2.825.463c2.879,0,5.724-1.978,7.456-5.17a1.314,1.314,0,0,0,.188-.538,1.523,1.523,0,0,0-.2-.705c-1.076-2.32-.88-5.311-.6-8.036a1.361,1.361,0,0,0-.042-.676.693.693,0,0,0-.417-.346c-1.865-.784-3.868-.3-5.841-.371-2.712-.1-5.341-1.348-8.057-1.352-1.21,0-1.3.451-1.473,1.965A15.763,15.763,0,0,1,183.624,237.118Z" transform="translate(-106.952 -149.896)" fill="#f7af87"/>
      <path id="Path_129" data-name="Path 129" d="M184.59,228s1.565,6.133,5.357,10.151,12.772,3.25,11.712-.338c-.893-3.008.78-9.813.78-9.813Z" transform="translate(-107.884 -148.585)" fill="url(#linear-gradient-6)"/>
      <path id="Path_130" data-name="Path 130" d="M277.012,172.512a2.485,2.485,0,0,0-1.494-.872,1.54,1.54,0,0,0-1.2.576,2.758,2.758,0,0,0-.555,1.252,6.639,6.639,0,0,0,.255,3.313,4.684,4.684,0,0,0,2.432,3.117,1.41,1.41,0,0,0,1.381-.088,1.669,1.669,0,0,0,.48-1.018C278.811,176.334,278.89,174.34,277.012,172.512Z" transform="translate(-159.793 -115.741)" fill="#f7af87"/>
      <path id="Path_131" data-name="Path 131" d="M202.123,170.139c-1.2,10.06-6.788,18.358-15.167,18.358s-15.167-8.215-15.167-18.358,5.387-21.579,13.769-21.579S204.572,149.578,202.123,170.139Z" transform="translate(-100.425 -102.29)" fill="#f7af87"/>
      <path id="Path_132" data-name="Path 132" d="M164.743,146.467q-.834-5.971-1.1-12.008c-.075-1.773-.046-3.755,1.143-5.061a5.617,5.617,0,0,0,.834-.955,3.789,3.789,0,0,0,.321-1.419c.451-3.8,3.2-6.976,6.354-9.142a24.4,24.4,0,0,1,11.637-4.172,13.4,13.4,0,0,1,4.022.171,14.444,14.444,0,0,1,3.8,1.523,16.191,16.191,0,0,1,5.04,3.93,8.072,8.072,0,0,1,1.878,5.971,7.093,7.093,0,0,1,3.935,4.264,14.758,14.758,0,0,1,.576,6.087c-.417,4.873-2.27,9.876-6.158,12.838a21.308,21.308,0,0,0-2.2-9.834,35.579,35.579,0,0,1-1.573-3.2,9.83,9.83,0,0,1-.634-3.667c-1.627.868-2.583,2.645-4.118,3.672a8.85,8.85,0,0,1-3.2,1.172,24.171,24.171,0,0,1-11.007-.384c-1.419-.384-3.225-.784-4.118.384a4.832,4.832,0,0,0-.534,2.633,12.759,12.759,0,0,1-.713,2.9l-2.211,6.676C165.958,148.2,164.885,147.448,164.743,146.467Z" transform="translate(-95.665 -81.936)" fill="#404040"/>
      <path id="Path_133" data-name="Path 133" d="M106.375,223.265c-7.014,4.494-11.9-3.125-12.125-3.5a11.04,11.04,0,0,0,10.781,0,3.3,3.3,0,0,0,1.252,3.338Z" transform="translate(-55.237 -143.783)" fill="url(#linear-gradient-7)"/>
      <path id="Path_134" data-name="Path 134" d="M278.878,179.674a1.53,1.53,0,0,1-.459-1.3c.142-.467.634-.709.638-1.16a.91.91,0,0,0-.355-.655,1.452,1.452,0,0,0-.872-.38.572.572,0,0,0-.321.071.659.659,0,0,0-.238.321,4.62,4.62,0,0,0,.1,3.5,1.773,1.773,0,0,0,.33.58,1.669,1.669,0,0,0,.726.388c.417.134.91.138,1.006-.384C279.508,180.275,279.07,179.941,278.878,179.674Z" transform="translate(-161.722 -118.384)" fill="url(#linear-gradient-8)"/>
      <path id="Path_135" data-name="Path 135" d="M351.953,179.874a1.529,1.529,0,0,0,.459-1.3c-.142-.467-.634-.709-.643-1.16a.918.918,0,0,1,.359-.655,1.431,1.431,0,0,1,.872-.38.555.555,0,0,1,.317.071.668.668,0,0,1,.242.321,4.64,4.64,0,0,1-.108,3.5,1.327,1.327,0,0,1-1.051.968c-.417.134-.91.138-1.01-.384C351.323,180.483,351.745,180.141,351.953,179.874Z" transform="translate(-205.085 -118.501)" fill="url(#linear-gradient-9)"/>
      <path id="Path_136" data-name="Path 136" d="M243.245,198.959a1.965,1.965,0,0,0,1.314-.317,1.381,1.381,0,0,0,.513-.417c.342-.538-.033-1.285.213-1.869a1.581,1.581,0,0,1,1.172-.784.834.834,0,0,1,.526,0,.872.872,0,0,1,.384.784A5.19,5.19,0,0,1,246.182,200a4.844,4.844,0,0,1-3.413,1.711.351.351,0,0,1-.2-.029.321.321,0,0,1-.134-.192,2.286,2.286,0,0,1,.417-2.241" transform="translate(-141.522 -129.662)" fill="url(#linear-gradient-10)"/>
      <path id="Path_137" data-name="Path 137" d="M164.472,197.359c.192.321.58.446.9.634a2.224,2.224,0,0,1,1.076,1.857,1.16,1.16,0,0,1-.709,1.185,1.346,1.346,0,0,1-1.252-.555,4.79,4.79,0,0,1-1.218-3.459c.025-.417.2-1.469.872-1.252C164.676,195.957,164.213,196.925,164.472,197.359Z" transform="translate(-95.456 -129.785)" fill="url(#linear-gradient-11)"/>
      <path id="Path_138" data-name="Path 138" d="M168.643,167.215a4.089,4.089,0,0,0-.764,2.111,14.779,14.779,0,0,0,.117,3.3l.63,5.67c.784-2.712,2.637-5.078,3.058-7.869a15.964,15.964,0,0,1,.392-2.674c.125-.376.868-1.3.592-1.669s-1.857-.075-2.27.042A3.409,3.409,0,0,0,168.643,167.215Z" transform="translate(-98.121 -112.396)" fill="url(#linear-gradient-12)"/>
      <path id="Path_139" data-name="Path 139" d="M237.778,146.3a.338.338,0,0,1,.209-.042c.092.021.146.108.2.192a18.67,18.67,0,0,1,2.357,5.17,12.468,12.468,0,0,1,.263,3.125,18.926,18.926,0,0,1-3.15,9.893c-.392-1.3-.35-2.691-.663-4.014a19.16,19.16,0,0,0-2.378-4.969c-.834-1.46-2.291-3.926-1.231-5.52a10.014,10.014,0,0,1,4.4-3.834Z" transform="translate(-136.101 -100.946)" fill="url(#linear-gradient-13)"/>
      <path id="Path_140" data-name="Path 140" d="M293.956,215.17s2.374,2.9,7.539,3.05c5.574.167,8.2-1.894,8.2-1.894a12.667,12.667,0,0,1-8.6,6.634c-3.884.776-8.253-.893-9.033-2.921C292.07,220.06,294.615,217.694,293.956,215.17Z" transform="translate(-170.52 -141.108)" fill="url(#linear-gradient-14)"/>
      <path id="Path_141" data-name="Path 141" d="M181.182,241.582s1.506,7.193,6.859,8.866,9.872-3.68,10.039-7.193,1.006-2.5,1.006-2.5l1.339.834V254.8l-10.206-1.51-10.039,2.846s-2.679-12.05-1.172-15.4" transform="translate(-104.364 -155.938)" fill="#47c5fc"/>
    </g>
    <g id="Component-2" data-name="Component" transform="translate(0 8)">
      <ellipse id="Ellipse_2" data-name="Ellipse 2" cx="6" cy="5.5" rx="6" ry="5.5" transform="translate(25 18)" fill="#a1e5c4"/>
      <g id="Component_1_1" data-name="Component 1 – 1">
        <ellipse id="Ellipse_1" data-name="Ellipse 1" cx="18.5" cy="13.5" rx="18.5" ry="13.5" fill="#a1e5c4"/>
        <line id="Line_2" data-name="Line 2" x2="24" transform="translate(6.5 8.5)" fill="none" stroke="#262626" stroke-width="1"/>
        <line id="Line_3" data-name="Line 3" x2="24" transform="translate(6.5 13.5)" fill="none" stroke="#262626" stroke-width="1"/>
        <line id="Line_4" data-name="Line 4" x2="24" transform="translate(6.5 18.5)" fill="none" stroke="#262626" stroke-width="1"/>
      </g>
    </g>
    <g id="Component-3" data-name="Component" transform="translate(148 4)">
      <g id="Component_1_2" data-name="Component 1 – 2">
        <ellipse id="Ellipse_1-2" data-name="Ellipse 1" cx="18.5" cy="13.5" rx="18.5" ry="13.5" fill="#a1e5c4"/>
        <line id="Line_2-2" data-name="Line 2" x2="24" transform="translate(6.5 8.5)" fill="none" stroke="#262626" stroke-width="1"/>
        <line id="Line_3-2" data-name="Line 3" x2="24" transform="translate(6.5 13.5)" fill="none" stroke="#262626" stroke-width="1"/>
        <line id="Line_4-2" data-name="Line 4" x2="24" transform="translate(6.5 18.5)" fill="none" stroke="#262626" stroke-width="1"/>
      </g>
      <path id="Polygon_1" data-name="Polygon 1" d="M4.5,0,9,11H0Z" transform="matrix(-0.819, -0.574, 0.574, -0.819, 7.965, 33.142)" fill="#a1e5c4"/>
    </g>
    <ellipse id="Ellipse_3" data-name="Ellipse 3" cx="6" cy="7" rx="6" ry="7" transform="translate(86 5)" fill="#a1e5c4"/>
    <path id="Polygon_2" data-name="Polygon 2" d="M4.184,3.934a2,2,0,0,1,3.632,0l2.874,6.227A2,2,0,0,1,8.874,13H3.126A2,2,0,0,1,1.31,10.162Z" transform="translate(98 26) rotate(180)" fill="#a1e5c4"/>
    <g id="Rectangle_8" data-name="Rectangle 8" transform="translate(88 22)" fill="#a1e5c4" stroke="#707070" stroke-width="1">
      <rect width="8" height="4" rx="2" stroke="none"/>
      <rect x="0.5" y="0.5" width="7" height="3" rx="1.5" fill="none"/>
    </g>
    <line id="Line_5" data-name="Line 5" y1="4" transform="translate(91.5 15.5)" fill="none" stroke="#707070" stroke-width="1"/>
    <g id="Ellipse_4" data-name="Ellipse 4" transform="translate(91 14)" fill="#fff" stroke="#707070" stroke-width="1">
      <circle cx="0.5" cy="0.5" r="0.5" stroke="none"/>
      <circle cx="0.5" cy="0.5" fill="none"/>
    </g>
    <line id="Line_6" data-name="Line 6" x1="2" y1="1" transform="translate(83.5 7.5)" fill="none" stroke="#707070" stroke-width="0.5"/>
    <line id="Line_10" data-name="Line 10" x1="1" y1="2" transform="translate(87.5 3.5)" fill="none" stroke="#707070" stroke-width="0.5"/>
    <line id="Line_11" data-name="Line 11" y1="2" transform="translate(91.5 2.5)" fill="none" stroke="#707070" stroke-width="0.5"/>
    <line id="Line_8" data-name="Line 8" x1="2" y2="2" transform="translate(97.5 5.5)" fill="none" stroke="#707070" stroke-width="0.5"/>
    <line id="Line_9" data-name="Line 9" x1="1" y2="2" transform="translate(95.5 3.5)" fill="none" stroke="#707070" stroke-width="0.5"/>
  </g>
  <text id="_" data-name="          " transform="translate(652.326 195.855)" font-size="3" font-family="Tahoma-Bold, Tahoma" font-weight="700"><tspan x="0" y="0" xml:space="preserve">          </tspan></text>
  <text id="_2" data-name="          " transform="translate(652.326 195.855)" font-size="3" font-family="Tahoma-Bold, Tahoma" font-weight="700"><tspan x="0" y="0" xml:space="preserve">          </tspan></text>
  <g id="Component_2" data-name="Component 2" transform="translate(476.085 182.522)">
    <path id="Path_1" data-name="Path 1" d="M824.291,206.928c-126.869-18.057-66.6,89.953-163.831,68.552s-108.555,55.51-126.536,90.287C523.1,386.7,516.885,392.34,512.73,395.188a57.124,57.124,0,0,0-7.443,5.691C495.3,409.573,460,439.334,460,439.334l31.165,15.96,35.617,17.983,35.394-17.983s13.69-9.1,18.365-23.715c.349-.869,3.381.257,3.78-.731,6.231-15.45,12.656-39.651,13.92-44,3.169-11.414,4.37-32.566,14.244-39.42,10.317-7.162,19.108-10.792,35.8-10.792,76.611,0,111-67.582,118.125-79.721,3.4-5.79,5.573-12.24,8.682-18.686,3.319-6.882,9.022-15.359,22.037-21.438,28.716-7.755,45.745-10.677,45.745-10.677Z" transform="translate(-451.759 -196.883)" fill="#a1fcff"/>
    <text id="_3" data-name="          " transform="translate(81.774 213.968)" fill="#707070" font-size="6" font-family="Tahoma-Bold, Tahoma" font-weight="700"><tspan x="0" y="0" xml:space="preserve">          </tspan></text>
    <text id="_4" data-name="          " transform="translate(313.955 11.333)" font-size="4" font-family="Tahoma-Bold, Tahoma" font-weight="700"><tspan x="0" y="0" xml:space="preserve">          </tspan></text>
    <path id="Path_2" data-name="Path 2" d="M824.291,206.928c-126.869-18.057-66.6,89.953-163.831,68.552s-108.555,55.51-126.536,90.287C523.1,386.7,516.885,392.34,512.73,395.188a57.124,57.124,0,0,0-7.443,5.691C495.3,409.573,460,439.334,460,439.334l31.165,15.96,35.617,17.983,35.394-17.983s5.883-13.714,13.356-24.052c9.5-13.137,13.356-41.136,14.7-45.738,3.169-11.414,8.043-32.566,17.917-39.42,10.317-7.162,23.449-9.443,40.145-9.443,76.611,0,110-67.92,117.123-80.058s4.9-28.773,32.055-33.718,45.411-3.6,45.411-3.6Z" transform="translate(-451.759 -204.882)" fill="#00a6d1"/>
    <g id="tree1" transform="translate(196.005 30.894)">
      <rect id="Rectangle_4" data-name="Rectangle 4" width="1.675" height="4.643" transform="translate(6.409 18.342)" fill="#432416"/>
      <rect id="Rectangle_5" data-name="Rectangle 5" width="0.857" height="4.643" transform="translate(6.409 18.342)" fill="#5b2f2f"/>
      <path id="Path_3" data-name="Path 3" d="M618.8,291.094a7.092,7.092,0,0,0,7.122,7.256,6.979,6.979,0,0,0,6.983-7.256c0-4.2-3.227-11.234-7.122-11.234s-6.983,7.032-6.983,11.234Z" transform="translate(-618.8 -279.859)" fill="#c6cc38"/>
      <path id="Path_4" data-name="Path 4" d="M625.793,279.85c.095,0,.186.008.28.015v18.467c-.048,0-.093.007-.141.007a7.092,7.092,0,0,1-7.122-7.256c0-4.2,3.087-11.234,6.983-11.234Z" transform="translate(-618.809 -279.85)" fill="#9eb121"/>
    </g>
    <g id="tree3" transform="translate(264.47 0.86)">
      <path id="Path_8" data-name="Path 8" d="M636.666,305.858a9.948,9.948,0,1,1-9.948-9.948,9.949,9.949,0,0,1,9.948,9.948" transform="translate(-616.77 -295.91)" fill="#c6cc38"/>
      <path id="Path_9" data-name="Path 9" d="M637.184,311.557a7.487,7.487,0,1,1-7.487-7.487,7.487,7.487,0,0,1,7.487,7.487" transform="translate(-621.39 -302.84)" fill="#b5bc2a"/>
      <path id="Path_10" data-name="Path 10" d="M698.783,335.667a2.237,2.237,0,1,1-2.237-2.237,2.236,2.236,0,0,1,2.237,2.237" transform="translate(-682.624 -327.775)" fill="#9eb121"/>
      <path id="Path_11" data-name="Path 11" d="M713.372,363.721a1.661,1.661,0,1,1-1.661-1.661,1.662,1.662,0,0,1,1.661,1.661" transform="translate(-695.992 -352.091)" fill="#9eb121"/>
      <path id="Path_12" data-name="Path 12" d="M706.222,388.512a1.661,1.661,0,1,1-1.661-1.662,1.661,1.661,0,0,1,1.661,1.662" transform="translate(-689.919 -373.145)" fill="#9eb121"/>
      <path id="Path_13" data-name="Path 13" d="M644.222,372.781a1.661,1.661,0,1,1-1.661-1.661,1.661,1.661,0,0,1,1.661,1.661" transform="translate(-637.263 -359.785)" fill="#9eb121"/>
      <path id="Path_14" data-name="Path 14" d="M645.652,348.451a1.661,1.661,0,1,1-1.661-1.661,1.661,1.661,0,0,1,1.661,1.661" transform="translate(-638.478 -339.122)" fill="#9eb121"/>
      <path id="Path_15" data-name="Path 15" d="M671.4,323.181a1.661,1.661,0,1,1-1.661-1.661,1.661,1.661,0,0,1,1.661,1.661" transform="translate(-660.347 -317.66)" fill="#9eb121"/>
      <path id="Path_16" data-name="Path 16" d="M652.975,339.328l1.956.323-1.527-.6,2.3-1.334-6.8,2.351-.145-2.14,5.1-2.467-2.258.6-.044-1.117-.193,1.182-2.663.974-.3-4.5-.479,5.593-2.53-1.165-.151-1.075-.063,1.01-1.742-.666,4.419,2.7-.285,3.32-2.457-1.331-.517-2v1.741l-1.611-.58,4.508,3.061-.971,10.443,3.3-.027-.573-8.5,5.344-2.851-1.353.371-.065-1.338-.258,1.42-3.741,1.34L649,341.51Z" transform="translate(-639.03 -327.07)" fill="#432416"/>
    </g>
    <g id="tree2" transform="translate(213.064 23.051)">
      <path id="Path_5" data-name="Path 5" d="M618.265,275.32s-7.654,14.23-7.836,19.374,3.3,8.8,11.958,6c9-2.915-4.122-25.375-4.122-25.375" transform="translate(-610.422 -275.32)" fill="#c6cc38"/>
      <path id="Path_6" data-name="Path 6" d="M623.543,310.23s-9.179,10.555-10.337,14.818,1.034,7.922,8.808,7.083c8.083-.873,1.529-21.9,1.529-21.9" transform="translate(-612.563 -305.297)" fill="#9eb121"/>
      <path id="Path_7" data-name="Path 7" d="M639.186,385.581v-7.537l3.028-2.033-.263-.391-2.765,1.857v-4.209l.887-.673,2.023.779.17-.439-1.752-.674,1.395-1.058-.284-.376-2.439,1.85V367.93h-.657v2.31l-1.495-1.173-.291.372,1.786,1.4v4.711l-1.438-.757-.211-2.094-.469.048.179,1.783-1.52-.8-.22.417,3.679,1.936v3.392l-2.453-1.29-.219.417,2.672,1.406v5.574" transform="translate(-631.398 -354.845)" fill="#432416"/>
    </g>
    <g id="tree7" transform="translate(281.577 94.351)">
      <path id="Path_25" data-name="Path 25" d="M632.595,304.943s2.575-.724,3.778-.914a5.079,5.079,0,0,1,2,.039L637,307.048s2.1.5,3.157.841a6.014,6.014,0,0,1,1.888,1.083l-2.116,2.7a8.247,8.247,0,0,1,3.33,2.511c1.685,1.981,1.862,2.269,1.862,2.269a15.021,15.021,0,0,1-2.338.647c-1.031.164-2.495.236-2.495.236a24.082,24.082,0,0,1,1.405,1.986c.572.935-1.491,1.262-3.833,1.594a6.9,6.9,0,0,1-3.231-.042,14.2,14.2,0,0,1,1.265,4.219c.291,2.321-.238,3.154-.238,3.154a10.157,10.157,0,0,1-3.36-1.638,9.289,9.289,0,0,1-2.363-2.625,20.734,20.734,0,0,1-1.26,3.946,13.06,13.06,0,0,1-2.155,2.944l-2.079-4.011-2.37,1.519a15.112,15.112,0,0,0-.748-2.6c-.309-.5.171-1.724.171-1.724s-.1.293-1.518.753a18.392,18.392,0,0,1-3.286.639,15.383,15.383,0,0,1,1.44-3.344,7.415,7.415,0,0,1,1.657-1.6,5.762,5.762,0,0,1-2.908.026,15.548,15.548,0,0,1-3.351-2.389s1.855-1.438,2.513-2.056a8.733,8.733,0,0,1,2.483-1.181,5.286,5.286,0,0,1-3.561-2.119,11.884,11.884,0,0,1-2.128-4.4s3.438-.545,5.091.615a27.934,27.934,0,0,0,2.628,1.675,12.655,12.655,0,0,1-1.878-3.528,7.131,7.131,0,0,1-.406-2.973,26.5,26.5,0,0,1,3.669,2.142,9.882,9.882,0,0,1,1.535,1.888,18.426,18.426,0,0,1-.178-5.06,19.579,19.579,0,0,1,1.142-4.6,25.156,25.156,0,0,1,2.979,3.632,10.943,10.943,0,0,1,1.3,3.661,16.179,16.179,0,0,1,1.018-2.8,14.462,14.462,0,0,1,2.1-2.581,17.306,17.306,0,0,1,.771,2.8c0,.628,0,1.7,0,1.7" transform="translate(-612.83 -298.54)" fill="#9eb121"/>
      <path id="Path_26" data-name="Path 26" d="M640.973,324.517c.616-.313-.248-.351-.248-.351l-.262,1.7s1.206-.144,1.834-.171a3.48,3.48,0,0,1,1.191.177l-.7,1.7a4.68,4.68,0,0,1,2.2.605c1.226.65,1.368.759,1.368.759a9.286,9.286,0,0,1-1.154.743c-.528.268-1.3.573-1.3.573a12.124,12.124,0,0,1,1.076.706c.458.349-.6.887-1.8,1.478a4.347,4.347,0,0,1-1.745.574,6.689,6.689,0,0,1,1.36,1.813,2.436,2.436,0,0,1,.381,1.573,6.055,6.055,0,0,1-2.071-.175,4.888,4.888,0,0,1-1.694-.838,9.915,9.915,0,0,1-.041,2.146,6.871,6.871,0,0,1-.686,1.825l-1.764-1.563-1.029,1.173a7.122,7.122,0,0,0-.822-1.125c-.247-.187-.187-.867-.187-.867s-.008.162-.7.644a11.656,11.656,0,0,1-1.665.914,7.537,7.537,0,0,1,.235-1.886,4.094,4.094,0,0,1,.633-1.082,3.629,3.629,0,0,1-1.56.548,8.745,8.745,0,0,1-2.185-.542s.765-1.039,1.02-1.458a5.32,5.32,0,0,1,1.144-1.031,3.088,3.088,0,0,1-2.257-.372,5.765,5.765,0,0,1-1.853-1.742,5.5,5.5,0,0,1,2.836-.639,16.028,16.028,0,0,0,1.684.329,6.262,6.262,0,0,1-1.579-1.366,3.294,3.294,0,0,1-.7-1.368,15.477,15.477,0,0,1,2.32.365,5.117,5.117,0,0,1,1.129.633,8.49,8.49,0,0,1-.911-2.422,9.252,9.252,0,0,1-.126-2.44,13.073,13.073,0,0,1,2.187,1.214,5.136,5.136,0,0,1,1.288,1.537,7.8,7.8,0,0,1,.1-1.547,7.7,7.7,0,0,1,.713-1.638,7.929,7.929,0,0,1,.865,1.216c.107.3.274.818.274.818" transform="translate(-621.682 -315.971)" fill="#c6cc38"/>
      <path id="Path_27" data-name="Path 27" d="M673.877,364.308c-.5-.073-1.78,14.06-1.095,14.5,1.33.854,1.6-.531,1.461-4.809s-.366-9.692-.366-9.692" transform="translate(-658.337 -340.542)" fill="#432416"/>
    </g>
    <g id="tree1-2" data-name="tree1" transform="translate(168.095 146.328)">
      <rect id="Rectangle_6" data-name="Rectangle 6" width="2.607" height="7.226" transform="translate(9.976 28.549)" fill="#432416"/>
      <rect id="Rectangle_7" data-name="Rectangle 7" width="1.333" height="7.226" transform="translate(9.976 28.549)" fill="#5b2f2f"/>
      <path id="Path_37" data-name="Path 37" d="M618.8,297.345a11.039,11.039,0,0,0,11.086,11.294c6.065,0,10.87-4.754,10.87-11.294s-5.023-17.485-11.086-17.485-10.87,10.945-10.87,17.485Z" transform="translate(-618.8 -279.858)" fill="#c6cc38"/>
      <path id="Path_38" data-name="Path 38" d="M629.68,279.85c.148,0,.29.012.436.024v28.744c-.076,0-.144.01-.22.01a11.039,11.039,0,0,1-11.086-11.293c0-6.538,4.8-17.485,10.87-17.485Z" transform="translate(-618.808 -279.85)" fill="#9eb121"/>
    </g>
    <g id="tree5" transform="translate(186.352 142.034)">
      <path id="Path_42" data-name="Path 42" d="M615.381,312c-1.337,4.1-6.807,5.686-10.55,4.1-2.734-1.151-5.038-4.895-3.6-7.629a9.448,9.448,0,0,1,7.341-4.893c3.887-.145,7.629,3.31,7.1,7.149a5.6,5.6,0,0,1-.289,1.271" transform="translate(-600.79 -303.578)" fill="#c6cc38"/>
      <path id="Path_43" data-name="Path 43" d="M630.061,369.693a1.611,1.611,0,0,1-1.981.848,1.933,1.933,0,0,1-.733-.329,3.748,3.748,0,0,0,.988-.9,4.571,4.571,0,0,0,.774-1.631l-.282-.057a4.355,4.355,0,0,1-.724,1.518,3.537,3.537,0,0,1-.973.873,2.169,2.169,0,0,1-.463-1.614l-.285-.039a2.565,2.565,0,0,0,.493,1.8,3.78,3.78,0,0,1-2.67.35,2.467,2.467,0,0,1-1.184-.648,1.209,1.209,0,0,0,.6-.391,1.881,1.881,0,0,0,.334-1.28l-.286.033a1.622,1.622,0,0,1-.271,1.066.963.963,0,0,1-.589.328,3.048,3.048,0,0,1-.588-1.385l-.286.033a3.443,3.443,0,0,0,.548,1.376,1.621,1.621,0,0,1-1.462-.938l-.266.11a1.941,1.941,0,0,0,1.747,1.118c.058,0,.118,0,.179-.007h.018a2.715,2.715,0,0,0,1.444.865,2.318,2.318,0,0,0,.616.106l.195,10.184.435.058-.131-10.241a4.191,4.191,0,0,0,1.834-.524,2.144,2.144,0,0,0,.929.452,2.561,2.561,0,0,0,.588.071,1.892,1.892,0,0,0,1.724-1.091Z" transform="translate(-617.975 -358.717)" fill="#432416"/>
      <path id="Path_44" data-name="Path 44" d="M675.651,315.254c-1.337,4.1-6.807,5.686-10.55,4.1-2.734-1.151-5.038-4.895-3.6-7.629a9.453,9.453,0,0,1,7.341-4.895c3.887-.145,7.629,3.311,7.1,7.149a5.73,5.73,0,0,1-.289,1.272" transform="translate(-652.682 -306.377)" fill="#9eb121"/>
      <path id="Path_45" data-name="Path 45" d="M686.69,370.6a1.608,1.608,0,0,1-1.979.848,1.911,1.911,0,0,1-.733-.329,3.747,3.747,0,0,0,.988-.9,4.572,4.572,0,0,0,.774-1.631l-.282-.057a4.342,4.342,0,0,1-.724,1.518,3.537,3.537,0,0,1-.973.873,2.168,2.168,0,0,1-.463-1.614l-.285-.039a2.566,2.566,0,0,0,.493,1.8,3.78,3.78,0,0,1-2.67.35,2.467,2.467,0,0,1-1.184-.648,1.216,1.216,0,0,0,.6-.389,1.889,1.889,0,0,0,.334-1.28l-.286.033a1.622,1.622,0,0,1-.271,1.066.962.962,0,0,1-.589.328,3.048,3.048,0,0,1-.588-1.385l-.286.033a3.467,3.467,0,0,0,.548,1.376,1.621,1.621,0,0,1-1.462-.938l-.266.111a1.946,1.946,0,0,0,1.747,1.116c.058,0,.118,0,.179-.007h.018a2.716,2.716,0,0,0,1.444.865,3.963,3.963,0,0,0,.826.108l.025,10.216.552-.032-.1-10.216a3.367,3.367,0,0,0,1.642-.495,2.144,2.144,0,0,0,.929.452,2.562,2.562,0,0,0,.588.071,1.89,1.89,0,0,0,1.724-1.093Z" transform="translate(-666.733 -359.501)" fill="#432416"/>
    </g>
    <g id="tree6" transform="translate(142.926 189.576)">
      <line id="Line_1" data-name="Line 1" x2="0.85" transform="translate(13.832 0)" fill="#432416"/>
      <path id="Path_55" data-name="Path 55" d="M714.5,399.405c-.762,2.339-3.878,3.24-6.012,2.339-1.558-.656-2.871-2.788-2.05-4.346a5.382,5.382,0,0,1,4.184-2.789c2.214-.082,4.348,1.887,4.045,4.074a3.425,3.425,0,0,1-.167.722" transform="translate(-689.487 -374.795)" fill="#c6cc38"/>
      <path id="Path_56" data-name="Path 56" d="M716.458,409.546a3.111,3.111,0,0,1-4.063,1.58c-1.053-.444-1.94-1.885-1.386-2.938a3.639,3.639,0,0,1,2.827-1.885,2.621,2.621,0,0,1,2.732,2.754,2.222,2.222,0,0,1-.11.49" transform="translate(-693.286 -384.351)" fill="#9eb121"/>
      <path id="Path_57" data-name="Path 57" d="M693.077,351.4c1.4-2.675,5.358-3.129,7.755-1.6,1.752,1.114,2.906,3.962,1.593,5.681A6.61,6.61,0,0,1,696.791,358c-2.7-.353-4.877-3.172-4.063-5.758a4.094,4.094,0,0,1,.349-.843" transform="translate(-678.346 -337.466)" fill="#c6cc38"/>
      <path id="Path_58" data-name="Path 58" d="M717.332,359.964a2.51,2.51,0,0,1,3.445-.711,1.912,1.912,0,0,1,.708,2.523,2.936,2.936,0,0,1-2.5,1.119,2.115,2.115,0,0,1-1.8-2.558,2.017,2.017,0,0,1,.155-.373" transform="translate(-698.402 -345.59)" fill="#9eb121"/>
      <path id="Path_59" data-name="Path 59" d="M636.784,356.081c-.763-2.339-3.878-3.24-6.012-2.339-1.558.656-2.871,2.789-2.05,4.346a5.389,5.389,0,0,0,4.184,2.789c2.214.082,4.346-1.887,4.045-4.074a3.363,3.363,0,0,0-.166-.722" transform="translate(-625.978 -341.122)" fill="#c6cc38"/>
      <path id="Path_60" data-name="Path 60" d="M647.912,362.695a2.741,2.741,0,0,0-3.58-1.392,2.092,2.092,0,0,0-1.221,2.589,3.205,3.205,0,0,0,2.49,1.66,2.309,2.309,0,0,0,2.408-2.426,1.875,1.875,0,0,0-.1-.432" transform="translate(-637.819 -347.414)" fill="#9eb121"/>
      <path id="Path_61" data-name="Path 61" d="M615.366,396.919c1.4,2.675,5.358,3.129,7.755,1.6,1.752-1.114,2.906-3.962,1.594-5.681a6.61,6.61,0,0,0-5.634-2.522c-2.7.353-4.877,3.172-4.063,5.758a4.066,4.066,0,0,0,.347.843" transform="translate(-614.846 -371.278)" fill="#c6cc38"/>
      <path id="Path_62" data-name="Path 62" d="M624.659,409.125a3.059,3.059,0,0,0,4.2.867c.949-.6,1.573-2.145.863-3.076a3.576,3.576,0,0,0-3.048-1.364,2.579,2.579,0,0,0-2.2,3.118,2.117,2.117,0,0,0,.187.455" transform="translate(-622.635 -383.732)" fill="#9eb121"/>
      <path id="Path_63" data-name="Path 63" d="M657.666,315.319a5.035,5.035,0,0,1,7.266-1.834c1.613,1.132,2.631,4.094,1.373,5.923A6.174,6.174,0,0,1,661,322.161a4.751,4.751,0,0,1-3.675-5.954,4.871,4.871,0,0,1,.342-.889" transform="translate(-649.405 -307.813)" fill="#c6cc38"/>
      <path id="Path_64" data-name="Path 64" d="M682.1,328.921a2.236,2.236,0,0,1,3.227-.816,2.1,2.1,0,0,1,.611,2.631,2.74,2.74,0,0,1-2.357,1.223,2.112,2.112,0,0,1-1.633-2.646,1.975,1.975,0,0,1,.152-.393" transform="translate(-669.608 -320.146)" fill="#9eb121"/>
      <path id="Path_65" data-name="Path 65" d="M632.795,351.066l5.261,2.5-2.911.2.358.305,3.165-.154,3.041,1.677-.059,9.333c.605-.026,1.209-.048,1.814-.062l-.134-8.047,8.117-2.781a1.088,1.088,0,0,1-.15-.488l-3.182.927,1.132-2.955h-.305l-1.289,2.96L643.2,356l-.194-6.566,1.339-1.238,3.222-.044.15-.3h-3l3.039-2.81-.1-.459-2.057,1.807.825-3.172-.249.1-1.088,3.524-2.026,1.779-.459-9.858h-.459l-.051,5.056-2.452-2.247-.461.051,2.809,2.757-.194,6.469-2.768-2.282-.256-2.2-.2-.357v2.247l-1.889-1.225-.51-.051,5.628,4.533-.037,3.039-5.592-2.618L635.4,350.1l-.408-.1.715,1.788-2.962-.92Z" transform="translate(-629.468 -329.16)" fill="#432416"/>
    </g>
    <g id="tree7-2" data-name="tree7" transform="translate(9.276 173.659)">
      <path id="Path_66" data-name="Path 66" d="M630.994,304.094s2.367-.628,3.472-.793a4.938,4.938,0,0,1,1.841.034l-1.268,2.586s1.926.43,2.9.73a5.6,5.6,0,0,1,1.735.939l-1.945,2.345a7.6,7.6,0,0,1,3.06,2.178c1.548,1.718,1.711,1.968,1.711,1.968a14.448,14.448,0,0,1-2.148.561c-.948.142-2.292.2-2.292.2a20.943,20.943,0,0,1,1.292,1.723c.526.811-1.37,1.095-3.523,1.383a6.7,6.7,0,0,1-2.969-.036,11.836,11.836,0,0,1,1.162,3.66,4.3,4.3,0,0,1-.219,2.737,9.6,9.6,0,0,1-3.088-1.421,8.205,8.205,0,0,1-2.172-2.277,17.254,17.254,0,0,1-1.158,3.423,11.417,11.417,0,0,1-1.981,2.554l-1.911-3.48-2.178,1.318a12.546,12.546,0,0,0-.687-2.259c-.284-.437.157-1.5.157-1.5s-.1.254-1.4.653a17.817,17.817,0,0,1-3.02.554,12.953,12.953,0,0,1,1.323-2.9,6.677,6.677,0,0,1,1.523-1.392,5.6,5.6,0,0,1-2.672.022,14.289,14.289,0,0,1-3.079-2.072s1.705-1.248,2.309-1.784a8.258,8.258,0,0,1,2.282-1.025,4.954,4.954,0,0,1-3.272-1.838,10.044,10.044,0,0,1-1.955-3.815s3.16-.473,4.678.534a25.935,25.935,0,0,0,2.416,1.453A10.824,10.824,0,0,1,618.2,306a5.857,5.857,0,0,1-.373-2.579,24.75,24.75,0,0,1,3.372,1.858,8.668,8.668,0,0,1,1.41,1.637,15.106,15.106,0,0,1-.163-4.39,16.237,16.237,0,0,1,1.05-3.991,22.177,22.177,0,0,1,2.738,3.151,9.13,9.13,0,0,1,1.194,3.176,13.526,13.526,0,0,1,.935-2.432,12.734,12.734,0,0,1,1.928-2.239,14.355,14.355,0,0,1,.708,2.428c0,.545,0,1.471,0,1.471" transform="translate(-612.83 -298.54)" fill="#9eb121"/>
      <path id="Path_67" data-name="Path 67" d="M636.672,325.409s1.132-.725,1.682-1a2.9,2.9,0,0,1,.967-.309l-.234,1.494s1.077-.127,1.637-.151a3.148,3.148,0,0,1,1.063.156l-.628,1.494a4.225,4.225,0,0,1,1.959.532c1.094.572,1.22.667,1.22.667a8.3,8.3,0,0,1-1.03.654c-.472.236-1.163.5-1.163.5a10.865,10.865,0,0,1,.96.621c.409.307-.534.78-1.611,1.3a3.922,3.922,0,0,1-1.557.5,5.9,5.9,0,0,1,1.214,1.595,2.116,2.116,0,0,1,.34,1.383,5.48,5.48,0,0,1-1.848-.154,4.386,4.386,0,0,1-1.512-.737,8.593,8.593,0,0,1-.036,1.888,6,6,0,0,1-.612,1.605l-1.574-1.375-.919,1.031a6.263,6.263,0,0,0-.733-.99c-.22-.165-.166-.763-.166-.763s-.007.142-.621.567a10.451,10.451,0,0,1-1.486.8,6.54,6.54,0,0,1,.21-1.659,3.6,3.6,0,0,1,.565-.952,3.267,3.267,0,0,1-1.392.482,7.9,7.9,0,0,1-1.95-.477s.683-.914.91-1.283a4.73,4.73,0,0,1,1.021-.907,2.791,2.791,0,0,1-2.015-.328,5.11,5.11,0,0,1-1.654-1.533,4.966,4.966,0,0,1,2.531-.562,14.491,14.491,0,0,0,1.5.29,5.572,5.572,0,0,1-1.409-1.2,2.879,2.879,0,0,1-.622-1.2,14,14,0,0,1,2.07.321,4.583,4.583,0,0,1,1.007.557,7.406,7.406,0,0,1-.813-2.131,8.024,8.024,0,0,1-.113-2.146,11.723,11.723,0,0,1,1.952,1.068,4.531,4.531,0,0,1,1.149,1.352,4.178,4.178,0,0,1,.721-2.8,6.98,6.98,0,0,1,.772,1.07c.1.264.244.719.244.719" transform="translate(-622.106 -316.411)" fill="#c6cc38"/>
      <path id="Path_68" data-name="Path 68" d="M674.122,364.308c-.6-.087-2.117,16.717-1.3,17.241,1.581,1.016,1.9-.631,1.737-5.717s-.435-11.523-.435-11.523" transform="translate(-659.703 -346.447)" fill="#432416"/>
    </g>
    <path id="Path_3-2" data-name="Path 3" d="M824.291,206.928c-126.869-18.058-66.6,89.953-163.831,68.552s-108.555,55.51-126.536,90.287C523.1,386.7,516.885,392.34,512.73,395.188a57.112,57.112,0,0,0-7.443,5.691c-9.99,8.694-76.43,33.145-45.287,38.456s20.186.18,31.165,15.96,27.583,22.672,45.335,22.672,28.675-21.672,28.675-21.672,9.539-8.649,19.575-26.328,12.226-38.769,13.49-43.114c3.169-11.414,4.37-32.566,14.244-39.42,10.317-7.162,19.108-10.792,35.8-10.792,76.611,0,111-67.582,118.125-79.721,3.4-5.79,5.573-12.24,8.682-18.686,3.318-6.882,9.022-15.359,22.037-21.438,28.716-7.755,45.745-10.677,45.745-10.677Z" transform="translate(-451.759 -196.883)" fill="#a1fcff"/>
    <text id="_5" data-name="          " transform="translate(81.774 213.968)" fill="#707070" font-size="6" font-family="Tahoma-Bold, Tahoma" font-weight="700"><tspan x="0" y="0" xml:space="preserve">          </tspan></text>
    <text id="_6" data-name="          " transform="translate(313.955 11.333)" font-size="4" font-family="Tahoma-Bold, Tahoma" font-weight="700"><tspan x="0" y="0" xml:space="preserve">          </tspan></text>
    <g id="tree3-2" data-name="tree3" transform="translate(267.47 113.86)">
      <path id="Path_8-2" data-name="Path 8" d="M636.666,305.858a9.948,9.948,0,1,1-9.948-9.948,9.949,9.949,0,0,1,9.948,9.948" transform="translate(-616.77 -295.91)" fill="#c6cc38"/>
      <path id="Path_9-2" data-name="Path 9" d="M637.184,311.557a7.487,7.487,0,1,1-7.487-7.487,7.487,7.487,0,0,1,7.487,7.487" transform="translate(-621.39 -302.84)" fill="#b5bc2a"/>
      <path id="Path_10-2" data-name="Path 10" d="M698.783,335.667a2.237,2.237,0,1,1-2.237-2.237,2.236,2.236,0,0,1,2.237,2.237" transform="translate(-682.624 -327.775)" fill="#9eb121"/>
      <path id="Path_11-2" data-name="Path 11" d="M713.372,363.721a1.661,1.661,0,1,1-1.661-1.661,1.662,1.662,0,0,1,1.661,1.661" transform="translate(-695.992 -352.091)" fill="#9eb121"/>
      <path id="Path_12-2" data-name="Path 12" d="M706.222,388.512a1.661,1.661,0,1,1-1.661-1.662,1.661,1.661,0,0,1,1.661,1.662" transform="translate(-689.919 -373.145)" fill="#9eb121"/>
      <path id="Path_13-2" data-name="Path 13" d="M644.222,372.781a1.661,1.661,0,1,1-1.661-1.661,1.661,1.661,0,0,1,1.661,1.661" transform="translate(-637.263 -359.785)" fill="#9eb121"/>
      <path id="Path_14-2" data-name="Path 14" d="M645.652,348.451a1.661,1.661,0,1,1-1.661-1.661,1.661,1.661,0,0,1,1.661,1.661" transform="translate(-638.478 -339.122)" fill="#9eb121"/>
      <path id="Path_15-2" data-name="Path 15" d="M671.4,323.181a1.661,1.661,0,1,1-1.661-1.661,1.661,1.661,0,0,1,1.661,1.661" transform="translate(-660.347 -317.66)" fill="#9eb121"/>
      <path id="Path_16-2" data-name="Path 16" d="M652.975,339.328l1.956.323-1.527-.6,2.3-1.334-6.8,2.351-.145-2.14,5.1-2.467-2.258.6-.044-1.117-.193,1.182-2.663.974-.3-4.5-.479,5.593-2.53-1.165-.151-1.075-.063,1.01-1.742-.666,4.419,2.7-.285,3.32-2.457-1.331-.517-2v1.741l-1.611-.58,4.508,3.061-.971,10.443,3.3-.027-.573-8.5,5.344-2.851-1.353.371-.065-1.338-.258,1.42-3.741,1.34L649,341.51Z" transform="translate(-639.03 -327.07)" fill="#432416"/>
    </g>
    <path id="Path_4-2" data-name="Path 4" d="M824.291,206.928c-126.869-18.058-66.6,89.953-163.831,68.552s-108.555,55.51-126.536,90.287C523.1,386.7,516.885,392.34,512.73,395.188c-2.633,1.806-7.443,5.691-7.443,5.691S463.531,425.731,460,439.335s21.833.715,31.165,15.96,22.669,24.588,41.169,22.421,16-11.333,24.5-22.421,11.225-13.714,18.7-24.052c9.5-13.137,13.356-41.136,14.7-45.738,3.169-11.414,8.043-32.566,17.917-39.42,10.317-7.162,23.449-9.443,40.145-9.443,76.611,0,110-67.92,117.124-80.058s4.9-28.773,32.055-33.718,45.411-3.6,45.411-3.6Z" transform="translate(-451.759 -204.882)" fill="#00a6d1"/>
    <g id="tree1-3" data-name="tree1" transform="translate(196.005 30.894)">
      <rect id="Rectangle_4-2" data-name="Rectangle 4" width="1.675" height="4.643" transform="translate(6.409 18.342)" fill="#432416"/>
      <rect id="Rectangle_5-2" data-name="Rectangle 5" width="0.857" height="4.643" transform="translate(6.409 18.342)" fill="#5b2f2f"/>
      <path id="Path_3-3" data-name="Path 3" d="M618.8,291.094a7.092,7.092,0,0,0,7.122,7.256,6.979,6.979,0,0,0,6.983-7.256c0-4.2-3.227-11.234-7.122-11.234s-6.983,7.032-6.983,11.234Z" transform="translate(-618.8 -279.859)" fill="#c6cc38"/>
      <path id="Path_4-3" data-name="Path 4" d="M625.793,279.85c.095,0,.186.008.28.015v18.467c-.048,0-.093.007-.141.007a7.092,7.092,0,0,1-7.122-7.256c0-4.2,3.087-11.234,6.983-11.234Z" transform="translate(-618.809 -279.85)" fill="#9eb121"/>
    </g>
    <g id="tree2-2" data-name="tree2" transform="translate(213.064 23.051)">
      <path id="Path_5-2" data-name="Path 5" d="M618.265,275.32s-7.654,14.23-7.836,19.374,3.3,8.8,11.958,6c9-2.915-4.122-25.375-4.122-25.375" transform="translate(-610.422 -275.32)" fill="#c6cc38"/>
      <path id="Path_6-2" data-name="Path 6" d="M623.543,310.23s-9.179,10.555-10.337,14.818,1.034,7.922,8.808,7.083c8.083-.873,1.529-21.9,1.529-21.9" transform="translate(-612.563 -305.297)" fill="#9eb121"/>
      <path id="Path_7-2" data-name="Path 7" d="M639.186,385.581v-7.537l3.028-2.033-.263-.391-2.765,1.857v-4.209l.887-.673,2.023.779.17-.439-1.752-.674,1.395-1.058-.284-.376-2.439,1.85V367.93h-.657v2.31l-1.495-1.173-.291.372,1.786,1.4v4.711l-1.438-.757-.211-2.094-.469.048.179,1.783-1.52-.8-.22.417,3.679,1.936v3.392l-2.453-1.29-.219.417,2.672,1.406v5.574" transform="translate(-631.398 -354.845)" fill="#432416"/>
    </g>
    <g id="tree2-3" data-name="tree2" transform="translate(50.559 110.274)">
      <path id="Path_39" data-name="Path 39" d="M617.355,275.32s-6.766,12.578-6.927,17.125,2.921,7.782,10.57,5.3c7.956-2.577-3.643-22.43-3.643-22.43" transform="translate(-610.422 -275.32)" fill="#c6cc38"/>
      <path id="Path_40" data-name="Path 40" d="M622.309,310.23s-8.113,9.33-9.137,13.1.914,7,7.786,6.261c7.145-.772,1.351-19.359,1.351-19.359" transform="translate(-612.604 -305.87)" fill="#9eb121"/>
      <path id="Path_41" data-name="Path 41" d="M638.683,383.532V376.87l2.676-1.8-.232-.346-2.444,1.641v-3.721l.784-.595,1.788.688.15-.388-1.549-.6,1.233-.935-.251-.332-2.156,1.635V367.93H638.1v2.042l-1.321-1.037-.257.328L638.1,370.5v4.164l-1.271-.669-.186-1.851-.415.042.159,1.576-1.344-.707-.195.368,3.252,1.711v3l-2.168-1.14-.194.368L638.1,378.6v4.927" transform="translate(-631.799 -356.364)" fill="#432416"/>
    </g>
    <g id="tree3-3" data-name="tree3" transform="translate(59.27 152.425)">
      <path id="Path_46" data-name="Path 46" d="M632.666,303.858a7.948,7.948,0,1,1-7.948-7.948,7.948,7.948,0,0,1,7.948,7.948" transform="translate(-616.77 -295.91)" fill="#c6cc38"/>
      <path id="Path_47" data-name="Path 47" d="M634.173,310.052a5.982,5.982,0,1,1-5.982-5.982,5.981,5.981,0,0,1,5.982,5.982" transform="translate(-621.555 -303.088)" fill="#b5bc2a"/>
      <path id="Path_48" data-name="Path 48" d="M697.884,335.217a1.787,1.787,0,1,1-1.787-1.787,1.786,1.786,0,0,1,1.787,1.787" transform="translate(-684.974 -328.912)" fill="#9eb121"/>
      <path id="Path_49" data-name="Path 49" d="M712.7,363.387a1.327,1.327,0,1,1-1.327-1.327,1.328,1.328,0,0,1,1.327,1.327" transform="translate(-698.819 -354.095)" fill="#9eb121"/>
      <path id="Path_50" data-name="Path 50" d="M705.554,388.178a1.327,1.327,0,1,1-1.327-1.328,1.327,1.327,0,0,1,1.327,1.328" transform="translate(-692.53 -375.9)" fill="#9eb121"/>
      <path id="Path_51" data-name="Path 51" d="M643.554,372.447a1.327,1.327,0,1,1-1.327-1.327,1.327,1.327,0,0,1,1.327,1.327" transform="translate(-637.995 -362.064)" fill="#9eb121"/>
      <path id="Path_52" data-name="Path 52" d="M644.984,348.117a1.327,1.327,0,1,1-1.327-1.327,1.327,1.327,0,0,1,1.327,1.327" transform="translate(-639.252 -340.664)" fill="#9eb121"/>
      <path id="Path_53" data-name="Path 53" d="M670.734,322.847a1.327,1.327,0,1,1-1.327-1.327,1.327,1.327,0,0,1,1.327,1.327" transform="translate(-661.902 -318.436)" fill="#9eb121"/>
      <path id="Path_54" data-name="Path 54" d="M650.965,337.975l1.563.258-1.22-.48,1.837-1.066-5.436,1.878-.116-1.71,4.076-1.971-1.8.48-.035-.892-.154.944-2.128.778-.242-3.594-.383,4.468-2.022-.931-.12-.858-.051.807-1.392-.532,3.53,2.154-.228,2.653L644.68,339.3l-.413-1.6v1.391l-1.287-.464,3.6,2.445-.775,8.343,2.634-.022-.458-6.788,4.27-2.278-1.081.3-.052-1.069-.206,1.134-2.988,1.07-.137-2.041Z" transform="translate(-639.824 -328.182)" fill="#432416"/>
    </g>
    <g id="tree6-2" data-name="tree6" transform="translate(142.926 189.576)">
      <line id="Line_1-2" data-name="Line 1" x2="0.85" transform="translate(13.832 0)" fill="#432416"/>
      <path id="Path_55-2" data-name="Path 55" d="M714.5,399.405c-.762,2.339-3.878,3.24-6.012,2.339-1.558-.656-2.871-2.788-2.05-4.346a5.382,5.382,0,0,1,4.184-2.789c2.214-.082,4.348,1.887,4.045,4.074a3.425,3.425,0,0,1-.167.722" transform="translate(-689.487 -374.795)" fill="#c6cc38"/>
      <path id="Path_56-2" data-name="Path 56" d="M716.458,409.546a3.111,3.111,0,0,1-4.063,1.58c-1.053-.444-1.94-1.885-1.386-2.938a3.639,3.639,0,0,1,2.827-1.885,2.621,2.621,0,0,1,2.732,2.754,2.222,2.222,0,0,1-.11.49" transform="translate(-693.286 -384.351)" fill="#9eb121"/>
      <path id="Path_57-2" data-name="Path 57" d="M693.077,351.4c1.4-2.675,5.358-3.129,7.755-1.6,1.752,1.114,2.906,3.962,1.593,5.681A6.61,6.61,0,0,1,696.791,358c-2.7-.353-4.877-3.172-4.063-5.758a4.094,4.094,0,0,1,.349-.843" transform="translate(-678.346 -337.466)" fill="#c6cc38"/>
      <path id="Path_58-2" data-name="Path 58" d="M717.332,359.964a2.51,2.51,0,0,1,3.445-.711,1.912,1.912,0,0,1,.708,2.523,2.936,2.936,0,0,1-2.5,1.119,2.115,2.115,0,0,1-1.8-2.558,2.017,2.017,0,0,1,.155-.373" transform="translate(-698.402 -345.59)" fill="#9eb121"/>
      <path id="Path_59-2" data-name="Path 59" d="M636.784,356.081c-.763-2.339-3.878-3.24-6.012-2.339-1.558.656-2.871,2.789-2.05,4.346a5.389,5.389,0,0,0,4.184,2.789c2.214.082,4.346-1.887,4.045-4.074a3.363,3.363,0,0,0-.166-.722" transform="translate(-625.978 -341.122)" fill="#c6cc38"/>
      <path id="Path_60-2" data-name="Path 60" d="M647.912,362.695a2.741,2.741,0,0,0-3.58-1.392,2.092,2.092,0,0,0-1.221,2.589,3.205,3.205,0,0,0,2.49,1.66,2.309,2.309,0,0,0,2.408-2.426,1.875,1.875,0,0,0-.1-.432" transform="translate(-637.819 -347.414)" fill="#9eb121"/>
      <path id="Path_61-2" data-name="Path 61" d="M615.366,396.919c1.4,2.675,5.358,3.129,7.755,1.6,1.752-1.114,2.906-3.962,1.594-5.681a6.61,6.61,0,0,0-5.634-2.522c-2.7.353-4.877,3.172-4.063,5.758a4.066,4.066,0,0,0,.347.843" transform="translate(-614.846 -371.278)" fill="#c6cc38"/>
      <path id="Path_62-2" data-name="Path 62" d="M624.659,409.125a3.059,3.059,0,0,0,4.2.867c.949-.6,1.573-2.145.863-3.076a3.576,3.576,0,0,0-3.048-1.364,2.579,2.579,0,0,0-2.2,3.118,2.117,2.117,0,0,0,.187.455" transform="translate(-622.635 -383.732)" fill="#9eb121"/>
      <path id="Path_63-2" data-name="Path 63" d="M657.666,315.319a5.035,5.035,0,0,1,7.266-1.834c1.613,1.132,2.631,4.094,1.373,5.923A6.174,6.174,0,0,1,661,322.161a4.751,4.751,0,0,1-3.675-5.954,4.871,4.871,0,0,1,.342-.889" transform="translate(-649.405 -307.813)" fill="#c6cc38"/>
      <path id="Path_64-2" data-name="Path 64" d="M682.1,328.921a2.236,2.236,0,0,1,3.227-.816,2.1,2.1,0,0,1,.611,2.631,2.74,2.74,0,0,1-2.357,1.223,2.112,2.112,0,0,1-1.633-2.646,1.975,1.975,0,0,1,.152-.393" transform="translate(-669.608 -320.146)" fill="#9eb121"/>
      <path id="Path_65-2" data-name="Path 65" d="M632.795,351.066l5.261,2.5-2.911.2.358.305,3.165-.154,3.041,1.677-.059,9.333c.605-.026,1.209-.048,1.814-.062l-.134-8.047,8.117-2.781a1.088,1.088,0,0,1-.15-.488l-3.182.927,1.132-2.955h-.305l-1.289,2.96L643.2,356l-.194-6.566,1.339-1.238,3.222-.044.15-.3h-3l3.039-2.81-.1-.459-2.057,1.807.825-3.172-.249.1-1.088,3.524-2.026,1.779-.459-9.858h-.459l-.051,5.056-2.452-2.247-.461.051,2.809,2.757-.194,6.469-2.768-2.282-.256-2.2-.2-.357v2.247l-1.889-1.225-.51-.051,5.628,4.533-.037,3.039-5.592-2.618L635.4,350.1l-.408-.1.715,1.788-2.962-.92Z" transform="translate(-629.468 -329.16)" fill="#432416"/>
    </g>
  </g>
  <g id="watering_plants" transform="translate(215.836 131.88)">
    <path id="Path_219" data-name="Path 219" d="M266.82,176.7a127,127,0,0,1-6.236,26.1c-1.871,5.563-4.235,16.951-8.494,21.1-8.039,7.87-33.59,7.1-44.578,8.307-11.849,1.247-23.7,2.17-35.629,2.769q-6.86.343-13.683.568c-33.053,1.079-66.106.175-99.16-.73-6.692-.193-13.446-.387-19.9-2.145-.811-.218-1.609-.468-2.4-.736a42.968,42.968,0,0,1-27.047-28.4c-3.817-13.471-.68-28.064,5.195-40.793s14.344-24.029,21.828-35.866c4.172-6.6,8.051-13.377,11.849-20.212C58.236,89.2,67.272,71.284,78.847,55.019c5.862-8.226,12.629-16.215,21.64-20.774,6.592-3.324,14.02-4.621,21.379-5.2,9.267-.73,18.84-.337,27.472,3.118,18.672,7.484,28.887,27.135,43.144,41.323,20.337,20.237,50.472,30.559,65.42,55.068a64.978,64.978,0,0,1,8.107,21.2A85.714,85.714,0,0,1,266.82,176.7Z" transform="translate(-8.03 -28.71)" fill="#77be32" opacity="0.18"/>
    <path id="Path_220" data-name="Path 220" d="M266.824,222.943a127,127,0,0,1-6.236,26.1c-1.871,5.563-4.235,16.951-8.494,21.1-8.039,7.87-33.59,7.1-44.578,8.307-11.849,1.247-23.7,2.17-35.629,2.769-44.722-3.673-90.079-3.268-135.138-3.043A42.967,42.967,0,0,1,9.7,249.773C5.885,236.3,9.022,221.708,14.9,208.98s14.344-24.029,21.828-35.866c4.172-6.6,8.051-13.377,11.849-20.212,10.165-2.931,20.268-1.247,28.482,8.313,6.8,7.908,10.727,17.805,16.121,26.723,5.756,9.523,13.483,18.161,23.43,23.137s22.333,5.819,32.074.443c16.215-8.924,20.281-30.883,34.481-42.72,3.393-2.819,7.54-5.064,11.955-4.989,7.633.112,13.371,6.773,17.743,13.028a268.7,268.7,0,0,1,15.3,24.59c2.351,4.272,4.952,8.943,9.492,10.714,7.228,2.813,14.7-3.118,20.038-8.768A51.411,51.411,0,0,1,266,195.964,85.713,85.713,0,0,1,266.824,222.943Z" transform="translate(-8.034 -74.948)" fill="#77be32" opacity="0.23"/>
    <path id="Path_221" data-name="Path 221" d="M213.071,329.625c16.14-.1,32.43-.056,48.214,3.393,2.264.493,4.989,1.6,5.114,3.916.106,1.952-1.777,3.368-3.492,4.309-16.838,9.292-36.876,10.134-55.779,13.764-8.282,1.59-16.5,3.742-24.915,4.216-18.572,1.035-36.508-6.236-54.912-8.906-22.582-3.312-45.632.268-68.376-1.572-5.762-.461-12.223-1.715-15.379-6.561a5.288,5.288,0,0,1-.96-4.022c.736-3.006,4.652-3.648,7.739-3.673,42.09-.405,84.236-3.7,126.413-4.44C188.818,329.85,200.929,329.625,213.071,329.625Z" transform="translate(-21.011 -141.941)" fill="#77be32"/>
    <path id="Path_222" data-name="Path 222" d="M213.071,329.625c16.14-.1,32.43-.056,48.214,3.393,2.264.493,4.989,1.6,5.114,3.916.106,1.952-1.777,3.368-3.492,4.309-16.838,9.292-36.876,10.134-55.779,13.764-8.282,1.59-16.5,3.742-24.915,4.216-18.572,1.035-36.508-6.236-54.912-8.906-22.582-3.312-45.632.268-68.376-1.572-5.762-.461-12.223-1.715-15.379-6.561a5.288,5.288,0,0,1-.96-4.022c.736-3.006,4.652-3.648,7.739-3.673,42.09-.405,84.236-3.7,126.413-4.44C188.818,329.85,200.929,329.625,213.071,329.625Z" transform="translate(-21.011 -141.941)" fill="url(#linear-gradient-15)"/>
    <path id="Path_223" data-name="Path 223" d="M347.614,324.98a4.91,4.91,0,0,1,1.528.7,22.593,22.593,0,0,0,5.027,2.17c.692.2,1.565.624,1.453,1.322a1.141,1.141,0,0,1-.524.717,4.99,4.99,0,0,1-2.9.624,44.09,44.09,0,0,1-9.2-.7c-1.74-.355-2.962-2.058-1.247-3.393A11.957,11.957,0,0,1,347.614,324.98Z" transform="translate(-133.321 -140.19)" fill="#3e3e54"/>
    <path id="Path_224" data-name="Path 224" d="M347.614,324.98a4.91,4.91,0,0,1,1.528.7,22.593,22.593,0,0,0,5.027,2.17c.692.2,1.565.624,1.453,1.322a1.141,1.141,0,0,1-.524.717,4.99,4.99,0,0,1-2.9.624,44.09,44.09,0,0,1-9.2-.7c-1.74-.355-2.962-2.058-1.247-3.393A11.957,11.957,0,0,1,347.614,324.98Z" transform="translate(-133.321 -140.19)" fill="url(#linear-gradient-16)"/>
    <path id="Path_225" data-name="Path 225" d="M294.137,291.979c-7.191,3.586-14.45,7.216-20.543,12.255a12.754,12.754,0,0,0-3.474,3.923,4.827,4.827,0,0,0,.112,4.9,8.278,8.278,0,0,0,3.224,2.326c3.293,1.653,6.667,3.337,10.359,3.854a34.584,34.584,0,0,0,5.569.187c3.517-.069,7.041-.137,10.533-.511,4.01-.424,7.964-1.247,11.955-1.84a6.648,6.648,0,0,0,3.118-.992c.861-.661,1.247-2,.43-2.732a3.264,3.264,0,0,0-2.27-.53,141.327,141.327,0,0,1-16.651-.742,130.588,130.588,0,0,0,13.1-2.6,28.616,28.616,0,0,0,9.448-4.122,12.179,12.179,0,0,0,5.245-8.157,27.285,27.285,0,0,0-.268-5.182c-.112-1.316-.175-2.763-1.116-3.742-1.291-1.353-3.561-1.216-5.488-.973l-12.591,1.628a49.882,49.882,0,0,0-5.239.624A26.422,26.422,0,0,0,294.137,291.979Z" transform="translate(-106.443 -125.96)" fill="#3e3e54"/>
    <path id="Path_226" data-name="Path 226" d="M294.137,291.993c-7.191,3.6-14.45,7.247-20.543,12.311a12.866,12.866,0,0,0-3.474,3.935,4.883,4.883,0,0,0,.112,4.927,8.369,8.369,0,0,0,3.224,2.339c3.293,1.659,6.667,3.343,10.359,3.867a35.313,35.313,0,0,0,5.569.193c3.517-.075,7.041-.143,10.533-.518,4.01-.43,7.964-1.247,11.955-1.871a6.654,6.654,0,0,0,3.118-1c.861-.667,1.247-2.014.43-2.744a3.232,3.232,0,0,0-2.27-.53,138.7,138.7,0,0,1-16.651-.755,128.894,128.894,0,0,0,13.1-2.607,28.536,28.536,0,0,0,9.448-4.147,12.239,12.239,0,0,0,5.245-8.195,27.484,27.484,0,0,0-.268-5.2c-.112-1.322-.175-2.775-1.116-3.742-1.291-1.36-3.561-1.247-5.488-.979l-12.591,1.634a48.281,48.281,0,0,0-5.239.624A27.186,27.186,0,0,0,294.137,291.993Z" transform="translate(-106.442 -125.95)" fill="url(#linear-gradient-17)"/>
    <path id="Path_227" data-name="Path 227" d="M173.865,176.993c-2.357-2.089-6.617-4.191-9.118-6.112s-4.815-4.3-5.738-7.315-.106-6.729,2.557-8.413a16.472,16.472,0,0,0,1.834-1.11,3.511,3.511,0,0,0-.48-5.463c-2.632-1.509-1.1-6.6,1.3-8.444,1.746-1.335,4.328-1.8,5.251-3.8,1.091-2.37-.992-5.114-.53-7.683.586-3.268,4.571-4.366,7.633-5.613a19.333,19.333,0,0,0,9.43-8.425,18.99,18.99,0,0,0,.823,12.56c.973,2.264,2.395,4.366,2.993,6.735a10.639,10.639,0,0,1-5.276,11.662,6.91,6.91,0,0,1,2.925,12.217c-1.017.8-2.239,1.3-3.218,2.145a3.148,3.148,0,0,0-1.179,3.411c.8,1.9,3.742,1.684,5.108,3.249s.268,4.3-1.572,5.37-4.091,1.054-6.236,1.31C177.1,173.638,175.143,173.925,173.865,176.993Z" transform="translate(-64.718 -61.029)" fill="#77be32"/>
    <path id="Path_228" data-name="Path 228" d="M173.753,176.426c-2.357-2.089-6.5-3.623-9.005-5.544s-4.815-4.3-5.738-7.315-.106-6.729,2.557-8.413a16.467,16.467,0,0,0,1.833-1.11,3.511,3.511,0,0,0-.48-5.463c-2.632-1.509-1.1-6.6,1.3-8.444,1.746-1.335,4.328-1.8,5.251-3.8,1.091-2.37-.992-5.114-.53-7.683.586-3.268,4.571-4.366,7.633-5.613a19.333,19.333,0,0,0,9.43-8.425,18.99,18.99,0,0,0,.823,12.56c.973,2.264,2.395,4.366,2.993,6.735a10.639,10.639,0,0,1-5.276,11.662,6.91,6.91,0,0,1,2.925,12.217c-1.017.8-2.239,1.3-3.218,2.145a3.148,3.148,0,0,0-1.179,3.411c.8,1.9,3.742,1.684,5.108,3.249s.268,4.3-1.572,5.37-4.091,1.054-6.236,1.31C177.1,173.638,175.025,173.357,173.753,176.426Z" transform="translate(-64.718 -61.029)" fill="url(#linear-gradient-18)"/>
    <path id="Path_229" data-name="Path 229" d="M155.826,318.862a10.82,10.82,0,0,1,19.77-1.035c2.2-2.326,6.236-2.089,8.768-.175s3.91,5.058,4.646,8.17q-11.332.624-22.676.536c-2.32,0-8.413.948-10.309-.43S155.109,320.739,155.826,318.862Z" transform="translate(-63.319 -135.275)" fill="#77be32"/>
    <path id="Path_230" data-name="Path 230" d="M155.826,318.862a10.82,10.82,0,0,1,19.77-1.035c2.2-2.326,6.236-2.089,8.768-.175s3.91,5.058,4.646,8.17q-11.332.624-22.676.536c-2.32,0-8.413.948-10.309-.43S155.109,320.739,155.826,318.862Z" transform="translate(-63.319 -135.275)" fill="url(#linear-gradient-19)"/>
    <path id="Path_231" data-name="Path 231" d="M282.472,263.93c-5.407-3.224-12.716-.748-18.429-3.386-1.553.842-4.366-.748-3.6.854s-1.7,2.27-.281,3.318c5.195,3.817,18.635,6.448,24.565,8.987a5.1,5.1,0,0,0,2.781.58c1.628-.268,2.613-1.9,3.318-3.4a58,58,0,0,0,5.3-19.476,21.483,21.483,0,0,0-.511-8.157c-.8-2.626-1.073-4.871-3.6-5.937-1.84-.78-2.775-.717-4.147,1.066a11,11,0,0,0-1.827,6.71C286.507,251.457,283.875,257.7,282.472,263.93Z" transform="translate(-102.754 -107.029)" fill="#faaf90"/>
    <path id="Path_232" data-name="Path 232" d="M282.472,263.93c-5.407-3.224-12.716-.748-18.429-3.386-1.553.842-4.366-.748-3.6.854s-1.7,2.27-.281,3.318c5.195,3.817,18.635,6.448,24.565,8.987a5.1,5.1,0,0,0,2.781.58c1.628-.268,2.613-1.9,3.318-3.4a58,58,0,0,0,5.3-19.476,21.483,21.483,0,0,0-.511-8.157c-.8-2.626-1.073-4.871-3.6-5.937-1.84-.78-2.775-.717-4.147,1.066a11,11,0,0,0-1.827,6.71C286.507,251.457,283.875,257.7,282.472,263.93Z" transform="translate(-102.754 -107.029)" fill="url(#linear-gradient-20)"/>
    <path id="Path_233" data-name="Path 233" d="M299.961,241.737a1.316,1.316,0,0,0,.094,1.035,2.276,2.276,0,0,0,.536.711,18.042,18.042,0,0,0,9.348,4.939,45.319,45.319,0,0,0,.38-9.055,17.013,17.013,0,0,0-1.166-5.8,7.983,7.983,0,0,0-2.85-3.53c-1.721-1.129-1.958-3.542-2.869-1.9C301.613,231.441,302.611,236.411,299.961,241.737Z" transform="translate(-117.879 -103.546)" fill="#77be32"/>
    <path id="Path_234" data-name="Path 234" d="M299.957,241.253a1.247,1.247,0,0,0,.094,1.035,2.277,2.277,0,0,0,.536.711,18.042,18.042,0,0,0,9.348,4.939,45.322,45.322,0,0,0,.38-9.055,17.014,17.014,0,0,0-1.166-5.8,7.983,7.983,0,0,0-2.85-3.53c-1.721-1.129-1.5-4.453-2.413-2.813C302.059,230.046,302.227,237.368,299.957,241.253Z" transform="translate(-117.875 -103.062)" fill="url(#linear-gradient-21)"/>
    <path id="Path_235" data-name="Path 235" d="M311.611,217.644c-1.946.8-3.948,1.746-5.176,3.455a9.855,9.855,0,0,0-1.484,5.881c0,6.86,2.594,13.358,5.164,19.689l4.752,11.706a17.9,17.9,0,0,0,3.062,5.544c2.339,2.551,5.962,3.524,9.417,3.786,4.4.331,9.255-.511,12.161-3.829a12.092,12.092,0,0,0,2.632-8.494,27.97,27.97,0,0,0-2.189-8.806,70.834,70.834,0,0,0-17.019-26.1C319.606,217.114,315.546,216.022,311.611,217.644Z" transform="translate(-119.781 -99.528)" fill="#77be32"/>
    <path id="Path_236" data-name="Path 236" d="M295.8,202.387c.237.686,1.141.792,1.74,1.2.979.667,1.247,2.258,2.407,2.495.929.193,1.958-.661,2.781-.187a1.752,1.752,0,0,1,.624.879,7.982,7.982,0,0,1,.536,1.8c.094.53.193,1.166.68,1.4a1.621,1.621,0,0,0,.624.106,13.932,13.932,0,0,0,4.3-.624,2.769,2.769,0,0,0,1.085-.536c.917-.817.586-2.289.287-3.48a20.489,20.489,0,0,1-.624-5.07c0-2.014.287-4.129-.536-5.968a7.422,7.422,0,0,0-2.619-2.956,6.118,6.118,0,0,0-4.023-1.3c-2.214.243-5.613,2.644-5.937,4.989-.143,1,.106,2.027,0,3.043C296.968,199.356,295.428,201.358,295.8,202.387Z" transform="translate(-116.315 -89.459)" fill="#faaf90"/>
    <path id="Path_237" data-name="Path 237" d="M304.919,210.973a15.578,15.578,0,0,1-.206,2.139,4.366,4.366,0,0,1-4.765,3.274,1.74,1.74,0,0,1-.873-.349,2.116,2.116,0,0,1-.493-.829,11.34,11.34,0,0,1-.935-3.156,3.9,3.9,0,0,1,.9-3.075A6.679,6.679,0,0,1,301,207.643a23.294,23.294,0,0,0,3.673-1.871,4.708,4.708,0,0,1,1.384-.686c1.977-.455.5,1.328.094,2a8.887,8.887,0,0,0-1.235,3.892Z" transform="translate(-117.019 -95.052)" fill="#3e3e54"/>
    <path id="Path_238" data-name="Path 238" d="M293.569,187.869c-1.316.405-2.819.7-3.6,1.871a3.025,3.025,0,0,0,.555,3.786,4.3,4.3,0,0,0,3.9.879c1.921-.462,3.929-1.946,5.644-.967s1.908,4.072,3.9,4.366c-.175-1.01-.493-1.36-.667-2.364.568-1.8,1.347-.281,1.559.306a6.119,6.119,0,0,1,.193,1.871,6.966,6.966,0,0,0,1.759,4.259,2.369,2.369,0,0,0,2.495.942c1.029-.43,1.147-1.815,1.1-2.931q-.15-3.58-.374-7.166a9.978,9.978,0,0,0-.493-2.975,7.028,7.028,0,0,0-1.765-2.495,9.28,9.28,0,0,0-7.247-2.707C298.041,184.757,296.064,187.108,293.569,187.869Z" transform="translate(-113.982 -87.34)" fill="#3e3e54"/>
    <path id="Path_239" data-name="Path 239" d="M303.138,290.845c-7.191,3.854-14.45,7.752-20.543,13.178a13.533,13.533,0,0,0-3.474,4.216,5.524,5.524,0,0,0,.112,5.264,8.046,8.046,0,0,0,3.23,2.495c3.287,1.777,6.661,3.58,10.353,4.141a31.93,31.93,0,0,0,5.569.2c3.517-.069,7.041-.143,10.533-.549,4.016-.455,7.964-1.347,11.955-1.977a6.243,6.243,0,0,0,3.118-1.066c.848-.711,1.247-2.158.43-2.937a3.071,3.071,0,0,0-2.27-.568,130.252,130.252,0,0,1-16.651-.8,123.05,123.05,0,0,0,13.1-2.794,27.671,27.671,0,0,0,9.448-4.434,13.216,13.216,0,0,0,5.245-8.775,31.394,31.394,0,0,0-.268-5.569c-.112-1.416-.175-2.969-1.116-4.029-1.291-1.459-3.561-1.31-5.488-1.048l-12.591,1.734a45.391,45.391,0,0,0-5.239.686A28.2,28.2,0,0,0,303.138,290.845Z" transform="translate(-109.831 -125.388)" fill="#3e3e54"/>
    <path id="Path_240" data-name="Path 240" d="M296.294,255.2A178.59,178.59,0,0,0,281.6,243.351c-1.678.524-2.4,2.657-1.989,4.366a10.124,10.124,0,0,0,2.85,4.366c4.366,4.746,8.837,9.479,14.169,13.1a5.107,5.107,0,0,0,2.619,1.1c1.646.05,2.937-1.366,3.91-2.694A57.93,57.93,0,0,0,312.1,245.5a21.388,21.388,0,0,0,1.066-8.107,9.53,9.53,0,0,0-3.817-6.991c-1.659-1.116-4.871-1.821-6.561-.331s-1.216,4.752-1.447,6.679A65.022,65.022,0,0,1,296.294,255.2Z" transform="translate(-110.202 -104.162)" fill="#faaf90"/>
    <path id="Path_241" data-name="Path 241" d="M311.987,231.831l-1.147,9.423a1.091,1.091,0,0,0,.73,1.372,55.7,55.7,0,0,0,8.556,3.91,7.4,7.4,0,0,0,4.047.524,1.247,1.247,0,0,0,.661-.331,1.422,1.422,0,0,0,.249-.655,49.486,49.486,0,0,0,.8-6.43,22.2,22.2,0,0,0-.343-6.2c-.455-2.027-1.3-8.488-2.806-9.922-1.94-1.871-4.185-1.247-6.823-.9S312.243,229.748,311.987,231.831Z" transform="translate(-121.979 -101.535)" fill="#77be32"/>
    <path id="Path_242" data-name="Path 242" d="M355.964,328.545a5.077,5.077,0,0,1,1.522.692,22.032,22.032,0,0,0,5.027,2.17c.692.2,1.565.624,1.459,1.322a1.16,1.16,0,0,1-.524.723,4.989,4.989,0,0,1-2.9.624,44.514,44.514,0,0,1-9.2-.7c-1.74-.355-2.962-2.064-1.247-3.393A11.475,11.475,0,0,1,355.964,328.545Z" transform="translate(-136.463 -141.529)" fill="#3e3e54"/>
    <path id="Path_243" data-name="Path 243" d="M1.977,0H14.83a1.952,1.952,0,0,1,1.952,1.952v10.19a8.382,8.382,0,0,1-8.4,8.382h0A8.382,8.382,0,0,1,0,12.142V1.958A1.952,1.952,0,0,1,1.952.006Z" transform="translate(144.308 140.409) rotate(-16.51)" fill="#77be32"/>
    <path id="Path_244" data-name="Path 244" d="M267.936,259.654l-.836-2.133a5,5,0,0,0,2.495-2.177,2.313,2.313,0,0,0-.069-1.871,3,3,0,0,0-4-1.634l-.792-2.145a5.237,5.237,0,0,1,6.91,2.9,4.559,4.559,0,0,1,.056,3.636A7.25,7.25,0,0,1,267.936,259.654Z" transform="translate(-104.644 -111.727)" fill="#77be32"/>
    <path id="Path_245" data-name="Path 245" d="M226.886,260.31l10.2,1.684,1.721,5.819-12.161-5.862S225.539,260.485,226.886,260.31Z" transform="translate(-90.15 -115.864)" fill="#77be32"/>
    <path id="Path_246" data-name="Path 246" d="M273.143,248.465a.624.624,0,0,0-.474.231c-.1.206.044.437.062.661a.948.948,0,0,1-.549.842,7.018,7.018,0,0,0-.935.493,1.871,1.871,0,0,0-.624,1.6,5.12,5.12,0,0,0,.524,1.69,4.269,4.269,0,0,0,2.089,2.495,4.365,4.365,0,0,0,1.752.118l4.515-.318a.549.549,0,0,0,.318-.1.48.48,0,0,0,.1-.256c.324-1.908-.7-4.185-1.665-5.781S274.752,248.259,273.143,248.465Z" transform="translate(-106.858 -111.384)" fill="#faaf90"/>
    <path id="Path_247" data-name="Path 247" d="M174.061,138.91l-2.5,92.749,2.725,2.276Z" transform="translate(-64.571 -52.269)" fill="#77be32"/>
    <path id="Path_248" data-name="Path 248" d="M198.518,238.131s-1.665-6.667-2.875-12.273,4.091-5.613,6.236-9.4-6.972-9.847-1.821-15.915,12.28-2.875,10.6-8.637-2.875-7.727,4.247-8.937,10.153,2.875,11.063-2.582,1.971-7.421,9.242-6.966,10.153-1.671,10.153-1.671,2.426,1.366.624,3.187-1.366,1.515.9,5.613-5.3,3.486-7.122,8.033,4.7,3.941.624,8.937-11.226-3.48-9.548,3.941,5.762,7.883.624,10.309-11.6,1.615-9.436,5.806,5.794,7.683.624,7.527-11.818-3.031-10.908.911,3.935,6.972-.911,8.338S198.518,238.131,198.518,238.131Z" transform="translate(-78.576 -82.534)" fill="#77be32"/>
    <path id="Path_249" data-name="Path 249" d="M139.229,236.675s1.665-6.667,2.875-12.273-4.091-5.613-6.236-9.4,6.972-9.847,1.821-15.909-12.28-2.881-10.6-8.637,2.875-7.733-4.247-8.943-10.153,2.881-11.063-2.576-1.971-7.428-9.242-6.972S92.38,170.3,92.38,170.3s-2.426,1.36-.624,3.181,1.36,1.515-.911,5.613,5.3,3.486,7.122,8.033-4.7,3.941-.624,8.943,11.226-3.486,9.548,3.935-5.762,7.883-.624,10.309,11.6,1.615,9.436,5.806-5.794,7.683-.624,7.527,11.849-3.031,10.914.911-3.941,6.972.9,8.338S139.229,236.675,139.229,236.675Z" transform="translate(-39.044 -81.988)" fill="#77be32"/>
    <path id="Path_250" data-name="Path 250" d="M198.518,238.131s-1.665-6.667-2.875-12.273,4.091-5.613,6.236-9.4-6.972-9.847-1.821-15.915,12.28-2.875,10.6-8.637-2.875-7.727,4.247-8.937,10.153,2.875,11.063-2.582,1.971-7.421,9.242-6.966,10.153-1.671,10.153-1.671,2.426,1.366.624,3.187-1.366,1.515.9,5.613-5.3,3.486-7.122,8.033,4.7,3.941.624,8.937-11.226-3.48-9.548,3.941,5.762,7.883.624,10.309-11.6,1.615-9.436,5.806,5.794,7.683.624,7.527-11.818-3.031-10.908.911,3.935,6.972-.911,8.338S198.518,238.131,198.518,238.131Z" transform="translate(-78.576 -82.534)" fill="url(#linear-gradient-22)"/>
    <path id="Path_251" data-name="Path 251" d="M139.229,236.675s1.665-6.667,2.875-12.273-4.091-5.613-6.236-9.4,6.972-9.847,1.821-15.909-12.28-2.881-10.6-8.637,2.875-7.733-4.247-8.943-10.153,2.881-11.063-2.576-1.971-7.428-9.242-6.972S92.38,170.3,92.38,170.3s-2.426,1.36-.624,3.181,1.36,1.515-.911,5.613,5.3,3.486,7.122,8.033-4.7,3.941-.624,8.943,11.226-3.486,9.548,3.935-5.762,7.883-.624,10.309,11.6,1.615,9.436,5.806-5.794,7.683-.624,7.527,11.849-3.031,10.914.911-3.941,6.972.9,8.338S139.229,236.675,139.229,236.675Z" transform="translate(-39.044 -81.988)" fill="url(#linear-gradient-23)"/>
    <path id="Path_252" data-name="Path 252" d="M233.3,184.112s-38.417,40.163-41.161,71.1l-1.515,15.46h3.486s-5.064-27.222,21.073-62.458S233.3,184.112,233.3,184.112Z" transform="translate(-76.752 -86.557)" fill="#77be32"/>
    <path id="Path_253" data-name="Path 253" d="M96.11,175.28s21.135,14.55,30.49,28.413,20.686,45.009,17.955,59.558l-1.434.624S144.761,205.04,96.11,175.28Z" transform="translate(-41.183 -83.862)" fill="#77be32"/>
  </g>
  <g id="blood-transfusion" transform="translate(471.326 89.235)">
    <path id="Path_265" data-name="Path 265" d="M15.985,14.05C23.039-.406,32.091,18.343,49.266-.027c23.658-25.3,67.164-41.314,83.542-27.226s9.612,29.8,12.038,41.3S142.951,29,155.993,43.377s6.369,24.152,3.033,29.04-30.579,13.209-23,22.41,3.842,33.756-32.554,32.894-46.055,24.916-69.713,7.09S-27.5,104.62-17.192,82.481C-7.272,61.183,13.876,55.85,13,45.649,13.006,45.615,13.3,19.551,15.985,14.05Z" transform="translate(9.943 12.132)" fill="#bbd9e6"/>
  </g>
  <g id="tree4" transform="translate(196.081 -84.724)">
    <path id="Path_266" data-name="Path 266" d="M621.529,315.553c-1.9,5.831-9.676,8.081-14.995,5.831-3.887-1.636-7.161-6.957-5.116-10.844a13.429,13.429,0,0,1,10.435-6.955c5.525-.205,10.844,4.7,10.087,10.162a7.965,7.965,0,0,1-.411,1.806" transform="translate(0 0)" fill="#c6cc38"/>
    <path id="Path_267" data-name="Path 267" d="M633.984,370.566a2.289,2.289,0,0,1-2.816,1.205,2.747,2.747,0,0,1-1.041-.468,5.328,5.328,0,0,0,1.4-1.284,6.5,6.5,0,0,0,1.1-2.318l-.4-.081a6.189,6.189,0,0,1-1.029,2.158,5.027,5.027,0,0,1-1.383,1.241,3.082,3.082,0,0,1-.658-2.294l-.405-.055a3.646,3.646,0,0,0,.7,2.557,5.374,5.374,0,0,1-3.8.5,3.507,3.507,0,0,1-1.683-.921,1.717,1.717,0,0,0,.848-.555,2.672,2.672,0,0,0,.474-1.82l-.407.047a2.306,2.306,0,0,1-.385,1.516,1.368,1.368,0,0,1-.838.466,4.333,4.333,0,0,1-.836-1.968l-.407.047a4.893,4.893,0,0,0,.779,1.956,2.3,2.3,0,0,1-2.079-1.334l-.377.156a2.76,2.76,0,0,0,2.484,1.589c.083,0,.168,0,.255-.01l.026,0a3.86,3.86,0,0,0,2.053,1.229,3.293,3.293,0,0,0,.875.15l.277,14.475.619.083-.186-14.556a5.956,5.956,0,0,0,2.606-.745,3.047,3.047,0,0,0,1.32.642,3.643,3.643,0,0,0,.836.1,2.688,2.688,0,0,0,2.45-1.551Z" transform="translate(-16.016 -51.388)" fill="#432416"/>
    <path id="Path_268" data-name="Path 268" d="M681.8,318.8c-1.9,5.831-9.676,8.081-14.995,5.831-3.887-1.636-7.161-6.957-5.116-10.844a13.436,13.436,0,0,1,10.435-6.957c5.525-.205,10.844,4.707,10.087,10.162a8.15,8.15,0,0,1-.411,1.808" transform="translate(-48.361 -2.608)" fill="#9eb121"/>
    <path id="Path_269" data-name="Path 269" d="M690.612,371.476a2.286,2.286,0,0,1-2.814,1.205,2.716,2.716,0,0,1-1.041-.468,5.328,5.328,0,0,0,1.4-1.284,6.5,6.5,0,0,0,1.1-2.318l-.4-.081a6.175,6.175,0,0,1-1.029,2.158,5.028,5.028,0,0,1-1.383,1.241,3.082,3.082,0,0,1-.658-2.294l-.405-.055a3.647,3.647,0,0,0,.7,2.557,5.374,5.374,0,0,1-3.8.5,3.508,3.508,0,0,1-1.683-.921,1.728,1.728,0,0,0,.848-.553,2.685,2.685,0,0,0,.474-1.82l-.407.047a2.306,2.306,0,0,1-.385,1.516,1.368,1.368,0,0,1-.838.466,4.333,4.333,0,0,1-.836-1.968l-.407.047a4.928,4.928,0,0,0,.779,1.956,2.3,2.3,0,0,1-2.079-1.334l-.377.158a2.766,2.766,0,0,0,2.484,1.587c.083,0,.168,0,.255-.01l.026,0a3.86,3.86,0,0,0,2.053,1.229,5.635,5.635,0,0,0,1.174.154l.036,14.521.784-.045-.138-14.521a4.786,4.786,0,0,0,2.333-.7,3.047,3.047,0,0,0,1.32.642,3.642,3.642,0,0,0,.836.1,2.686,2.686,0,0,0,2.45-1.553Z" transform="translate(-61.457 -52.118)" fill="#432416"/>
  </g>
  <g id="tree2-4" data-name="tree2" transform="translate(77.737 -75.465)">
    <path id="Path_270" data-name="Path 270" d="M622.267,275.32s-11.56,21.491-11.835,29.261,4.991,13.3,18.06,9.063c13.593-4.4-6.225-38.324-6.225-38.324" transform="translate(0)" fill="#c6cc38"/>
    <path id="Path_271" data-name="Path 271" d="M628.966,310.23s-13.862,15.941-15.612,22.379,1.562,11.965,13.3,10.7c12.208-1.319,2.309-33.077,2.309-33.077" transform="translate(-1.961 -27.46)" fill="#9eb121"/>
    <path id="Path_272" data-name="Path 272" d="M641.4,394.588V383.2l4.573-3.071-.4-.591-4.176,2.8V375.99l1.34-1.016,3.056,1.176.256-.664-2.646-1.018,2.106-1.6-.429-.568L641.4,375.1V367.93h-.992v3.489l-2.258-1.771-.44.561,2.7,2.113v7.115l-2.172-1.144-.318-3.163-.708.073.271,2.693-2.3-1.208-.333.63,5.557,2.923v5.124l-3.7-1.948-.331.63,4.035,2.123v8.419" transform="translate(-19.215 -72.847)" fill="#432416"/>
  </g>
  <g id="tree2-5" data-name="tree2" transform="translate(-71.263 13.535)">
    <path id="Path_270-2" data-name="Path 270" d="M622.267,275.32s-11.56,21.491-11.835,29.261,4.991,13.3,18.06,9.063c13.593-4.4-6.225-38.324-6.225-38.324" transform="translate(0)" fill="#c6cc38"/>
    <path id="Path_271-2" data-name="Path 271" d="M628.966,310.23s-13.862,15.941-15.612,22.379,1.562,11.965,13.3,10.7c12.208-1.319,2.309-33.077,2.309-33.077" transform="translate(-1.961 -27.46)" fill="#9eb121"/>
    <path id="Path_272-2" data-name="Path 272" d="M641.4,394.588V383.2l4.573-3.071-.4-.591-4.176,2.8V375.99l1.34-1.016,3.056,1.176.256-.664-2.646-1.018,2.106-1.6-.429-.568L641.4,375.1V367.93h-.992v3.489l-2.258-1.771-.44.561,2.7,2.113v7.115l-2.172-1.144-.318-3.163-.708.073.271,2.693-2.3-1.208-.333.63,5.557,2.923v5.124l-3.7-1.948-.331.63,4.035,2.123v8.419" transform="translate(-19.215 -72.847)" fill="#432416"/>
  </g>
  <g id="tree6-3" data-name="tree6" transform="translate(2.554 79.595)">
    <line id="Line_12" data-name="Line 12" x2="1.122" transform="translate(633.092 286.26)" fill="#432416"/>
    <path id="Path_273" data-name="Path 273" d="M717.158,400.937c-1.006,3.085-5.116,4.274-7.931,3.085-2.055-.866-3.787-3.679-2.7-5.734a7.1,7.1,0,0,1,5.519-3.679c2.921-.108,5.736,2.489,5.336,5.374a4.52,4.52,0,0,1-.22.953" transform="translate(-69.31 -82.211)" fill="#c6cc38"/>
    <path id="Path_274" data-name="Path 274" d="M718.252,410.582c-.68,2.084-3.457,2.887-5.36,2.084-1.389-.586-2.559-2.487-1.828-3.876a4.8,4.8,0,0,1,3.729-2.487,3.457,3.457,0,0,1,3.6,3.633,2.922,2.922,0,0,1-.145.646" transform="translate(-72.838 -91.085)" fill="#9eb121"/>
    <path id="Path_275" data-name="Path 275" d="M693.244,352.185c1.848-3.529,7.068-4.127,10.23-2.113,2.311,1.469,3.833,5.227,2.1,7.495a8.72,8.72,0,0,1-7.432,3.326c-3.558-.466-6.433-4.185-5.36-7.6a5.4,5.4,0,0,1,.461-1.112" transform="translate(-58.965 -47.549)" fill="#c6cc38"/>
    <path id="Path_276" data-name="Path 276" d="M717.406,360.315c.82-1.568,3.141-1.833,4.545-.938,1.028.651,1.7,2.323.934,3.329a3.874,3.874,0,0,1-3.3,1.476,2.791,2.791,0,0,1-2.381-3.375,2.657,2.657,0,0,1,.205-.492" transform="translate(-77.588 -55.092)" fill="#9eb121"/>
    <path id="Path_277" data-name="Path 277" d="M639.438,356.938c-1.006-3.085-5.116-4.274-7.931-3.085-2.055.866-3.787,3.679-2.7,5.734a7.109,7.109,0,0,0,5.519,3.679c2.921.109,5.734-2.489,5.336-5.374a4.449,4.449,0,0,0-.219-.953" transform="translate(-10.338 -50.944)" fill="#c6cc38"/>
    <path id="Path_278" data-name="Path 278" d="M649.492,363.2c-.6-1.836-3.047-2.545-4.723-1.836-1.223.516-2.255,2.19-1.611,3.416a4.228,4.228,0,0,0,3.286,2.19,3.046,3.046,0,0,0,3.177-3.2,2.475,2.475,0,0,0-.128-.569" transform="translate(-21.333 -56.785)" fill="#9eb121"/>
    <path id="Path_279" data-name="Path 279" d="M615.532,399.031c1.848,3.529,7.068,4.127,10.23,2.113,2.311-1.469,3.833-5.227,2.1-7.495a8.719,8.719,0,0,0-7.432-3.326c-3.558.466-6.433,4.185-5.36,7.6a5.359,5.359,0,0,0,.458,1.112" transform="translate(0 -78.945)" fill="#c6cc38"/>
    <path id="Path_280" data-name="Path 280" d="M624.748,410.268c1,1.91,3.826,2.234,5.538,1.143,1.252-.794,2.075-2.829,1.139-4.057a4.718,4.718,0,0,0-4.021-1.8,3.4,3.4,0,0,0-2.9,4.113,2.792,2.792,0,0,0,.246.6" transform="translate(-7.234 -90.51)" fill="#9eb121"/>
    <path id="Path_281" data-name="Path 281" d="M657.834,316.175a6.642,6.642,0,0,1,9.586-2.419c2.128,1.493,3.471,5.4,1.812,7.813a8.145,8.145,0,0,1-7,3.633,6.268,6.268,0,0,1-4.848-7.854,6.429,6.429,0,0,1,.451-1.172" transform="translate(-32.091 -20.013)" fill="#c6cc38"/>
    <path id="Path_282" data-name="Path 282" d="M682.17,329.3a2.949,2.949,0,0,1,4.257-1.076,2.771,2.771,0,0,1,.806,3.471,3.615,3.615,0,0,1-3.109,1.614,2.786,2.786,0,0,1-2.154-3.49,2.6,2.6,0,0,1,.2-.519" transform="translate(-50.851 -31.465)" fill="#9eb121"/>
    <path id="Path_283" data-name="Path 283" d="M632.812,354.994l6.94,3.3-3.84.27.473.4,4.176-.2,4.011,2.212-.077,12.312c.8-.034,1.594-.063,2.393-.082l-.176-10.616,10.708-3.669a1.439,1.439,0,0,1-.2-.644l-4.2,1.223,1.493-3.9h-.4l-1.7,3.905-5.876,1.992-.256-8.662,1.766-1.633,4.25-.058.2-.4h-3.958l4.009-3.708-.135-.606-2.714,2.383,1.088-4.185-.328.13-1.435,4.648-2.673,2.347-.605-13h-.605l-.068,6.67-3.235-2.965-.608.068,3.705,3.638-.256,8.534-3.652-3.01-.338-2.9-.27-.47v2.965l-2.492-1.616-.673-.068,7.425,5.98-.048,4.009-7.376-3.454-1.011-2.424-.538-.135.943,2.359-3.908-1.213Z" transform="translate(-13.578 -39.836)" fill="#432416"/>
  </g>
  <g id="blood-transfusion-2" data-name="blood-transfusion" transform="translate(491.326 101.855)">
    <path id="Path_285" data-name="Path 285" d="M103.658,54.092A55.45,55.45,0,0,1,93.74,85.923a54.18,54.18,0,0,1-4.066,5.127,50.713,50.713,0,0,1-37.846,17.135,49.876,49.876,0,0,1-24.068-6.173,51.535,51.535,0,0,1-6.886-4.528,53.554,53.554,0,0,1-12.9-14.559c-.673-1.1-1.3-2.239-1.9-3.4q-.482-.94-.929-1.905-.685-1.48-1.286-3.009A55.959,55.959,0,0,1,0,54.092C0,24.218,23.2,0,51.829,0A49.779,49.779,0,0,1,67.982,2.68q1.028.351,2.041.748A50.131,50.131,0,0,1,76.588,6.56c.116.066.231.132.345.2A53.155,53.155,0,0,1,96.48,26.611,55.633,55.633,0,0,1,103.658,54.092Z" transform="translate(10 5)" fill="#00a6f9"/>
    <path id="Path_286" data-name="Path 286" d="M87.8,200.552,45.725,242.628A58.039,58.039,0,0,1,21.54,218.6q-.538-1-1.036-2.036-.764-1.582-1.434-3.216l40.767-40.764Z" transform="translate(-4.764 -131.008)" fill="#ffcda8"/>
    <path id="Path_287" data-name="Path 287" d="M66.568,179.317,23.654,222.231q-1.125-1.769-2.114-3.629-.538-1-1.036-2.036-.764-1.582-1.434-3.216l40.767-40.764Z" transform="translate(-4.764 -130.029)" fill="#efb691"/>
    <path id="Path_288" data-name="Path 288" d="M240.06,59.219c-3.486,1-8.522,6.031-8.551,6.06,0,0-19.493,19.31-33.506,5.3L185.388,57.96c-10.342-10.342-5.6-26.768,3.508-35.875L209.122,1.859a5.989,5.989,0,1,1,8.47,8.47l8.575-8.575a5.989,5.989,0,1,1,8.47,8.47l6.6-6.6a5.99,5.99,0,1,1,8.471,8.472l-5.333,5.333a5.988,5.988,0,1,1,8.468,8.468L230.128,48.611a29.666,29.666,0,0,1,6.166-2.538,6.837,6.837,0,1,1,3.765,13.145Z" transform="translate(-135.268 5)" fill="#ffcda8"/>
    <g id="Group_3" data-name="Group 3" transform="translate(44.264 5.034)">
      <path id="Path_289" data-name="Path 289" d="M188.267,61.207l-2.88-2.88c-10.342-10.342-5.6-26.768,3.508-35.875L209.121,2.227a5.99,5.99,0,0,1,9.658,1.692A5.993,5.993,0,0,0,212,5.107L191.775,25.333C182.667,34.439,177.925,50.866,188.267,61.207Z" transform="translate(-179.531 -0.401)" fill="#efb691"/>
      <path id="Path_290" data-name="Path 290" d="M296.309,21.677,316.015,1.97a6.08,6.08,0,0,1,8.459-.205,5.943,5.943,0,0,1,1.3,1.8,5.993,5.993,0,0,0-6.778,1.188L299.188,24.556a2.036,2.036,0,0,1-2.88,0h0A2.037,2.037,0,0,1,296.309,21.677Z" transform="translate(-269.479 -0.151)" fill="#efb691"/>
      <path id="Path_291" data-name="Path 291" d="M341.671,34.434,366.307,9.8a6.08,6.08,0,0,1,8.459-.205,5.943,5.943,0,0,1,1.3,1.8,5.993,5.993,0,0,0-6.778,1.188L344.55,37.314a2.036,2.036,0,0,1-2.88,0h0A2.037,2.037,0,0,1,341.671,34.434Z" transform="translate(-304.599 -6.212)" fill="#efb691"/>
      <path id="Path_292" data-name="Path 292" d="M373.082,91.617l20.683-20.683a6.08,6.08,0,0,1,8.459-.205,5.943,5.943,0,0,1,1.3,1.8,5.993,5.993,0,0,0-6.778,1.188L375.962,94.5a2.036,2.036,0,0,1-2.88,0h0A2.036,2.036,0,0,1,373.082,91.617Z" transform="translate(-328.918 -53.544)" fill="#efb691"/>
      <path id="Path_293" data-name="Path 293" d="M321.235,209.232a6.835,6.835,0,0,0-7.624-2.858,29.3,29.3,0,0,0-12.96,7.708,15.774,15.774,0,0,0-20.093-1.845,1.628,1.628,0,0,1-2.079-.18h0a1.628,1.628,0,0,1,.142-2.425,15.774,15.774,0,0,1,20.95,1.211,29.3,29.3,0,0,1,12.96-7.708,6.842,6.842,0,0,1,8.7,6.1Z" transform="translate(-255.77 -157.095)" fill="#efb691"/>
    </g>
    <path id="Path_294" data-name="Path 294" d="M191.595,349.6a58.372,58.372,0,0,1-4.535,5.478l-9.676-9.676a11.307,11.307,0,0,0-15.992,0l-17.577,17.577a18.388,18.388,0,1,1-26-26l4.011-4.011,5.007,5.007-4.011,4.011a11.308,11.308,0,1,0,15.992,15.991L156.387,340.4a18.412,18.412,0,0,1,26,0Z" transform="translate(-83.322 -255.176)" fill="#ff5b47"/>
    <g id="Group_4" data-name="Group 4" transform="translate(39.662 73.973)">
      <rect id="Rectangle_11" data-name="Rectangle 11" width="5.977" height="11.482" transform="translate(0 4.569) rotate(-45)" fill="#fff"/>
      <rect id="Rectangle_12" data-name="Rectangle 12" width="5.977" height="4.885" transform="translate(5.005 4.226) rotate(-45)" fill="#fff"/>
    </g>
    <path id="Path_295" data-name="Path 295" d="M187.053,282.543l-6.264,6.264,3.454,3.454L190.507,286a2.442,2.442,0,0,0,0-3.454h0A2.443,2.443,0,0,0,187.053,282.543Z" transform="translate(-132.403 -214.639)" fill="#efb691"/>
  </g>
</svg>
